<?xml version="1.0" standalone="no"?>
<!DOCTYPE svg PUBLIC "-//W3C//DTD SVG 1.1//EN" "http://www.w3.org/Graphics/SVG/1.1/DTD/svg11.dtd" >
<svg xmlns="http://www.w3.org/2000/svg">
<metadata>Generated by IcoMoon</metadata>
<defs>
<font id="gb_font" horiz-adv-x="1024">
<font-face units-per-em="1024" ascent="960" descent="-64" />
<missing-glyph horiz-adv-x="1024" />
<glyph unicode="&#x20;" horiz-adv-x="512" d="" />
<glyph unicode="&#xe900;" glyph-name="amount_decrease" d="M512-64c-282.304 0-512 229.76-512 512 0 282.261 229.696 512 512 512 282.261 0 512-229.717 512-512s-229.76-512-512-512zM512 917.333c-258.795 0-469.333-210.539-469.333-469.333 0-258.773 210.539-469.333 469.333-469.333 258.752 0 469.333 210.539 469.333 469.333-0.043 258.795-210.581 469.333-469.333 469.333zM814.592 502.293l-605.184-0.021v-110.059l605.099 0.043z" />
<glyph unicode="&#xe901;" glyph-name="amount_increase" d="M512-64c-282.304 0-512 229.76-512 512 0 282.261 229.696 512 512 512 282.261 0 512-229.717 512-512s-229.76-512-512-512zM512 917.333c-258.795 0-469.333-210.539-469.333-469.333 0-258.773 210.539-469.333 469.333-469.333 258.752 0 469.333 210.539 469.333 469.333-0.043 258.795-210.581 469.333-469.333 469.333zM814.592 502.293l-248.085-0.021v248.341l-109.995-0.043v-248.299h-247.104v-110.059l247.083 0.043v-246.891h110.016v246.891h248z" />
<glyph unicode="&#xe902;" glyph-name="apple_tv" d="M533.333-64h-426.667c-58.816 0-106.667 47.851-106.667 106.667v128c0 11.776 9.557 21.333 21.333 21.333s21.333-9.557 21.333-21.333c0-35.285 28.715-64 64-64h426.667c35.285 0 64 28.715 64 64 0 11.776 9.557 21.333 21.333 21.333s21.333-9.557 21.333-21.333v-128c0-58.816-47.851-106.667-106.667-106.667zM42.667 85.376v-42.709c0-35.285 28.715-64 64-64h426.667c35.285 0 64 28.715 64 64v42.709c-17.835-13.397-40-21.376-64-21.376h-426.667c-24 0-46.165 7.979-64 21.376zM853.333-64c-29.589 0-128.917 2.752-164.416 38.251-4.011 3.989-6.251 9.408-6.251 15.083v874.667c0 5.653 2.24 53.76 6.251 57.749 35.499 35.499 134.827 38.251 164.416 38.251s128.917-2.752 164.416-38.251c4.011-3.989 6.251-52.096 6.251-57.749v-874.667c0-5.675-2.24-11.093-6.251-15.083-35.499-35.499-134.827-38.251-164.416-38.251zM725.333-0.213c19.008-11.115 65.365-21.12 128-21.12s108.992 10.005 128 21.12v896.427c-19.008 11.115-65.365 21.12-128 21.12s-108.992-10.005-128-21.12v-896.427zM601.6 157.867l-92.16 122.88c-18.432 24.576-47.787 39.253-78.507 39.253h-221.867c-30.72 0-60.053-14.677-78.507-39.253l-92.16-122.88-34.133 25.6 92.16 122.88c26.453 35.285 68.565 56.32 112.64 56.32h221.867c44.075 0 86.187-21.035 112.597-56.341l92.16-122.88-34.091-25.579zM853.333 608c-58.816 0-106.667 47.851-106.667 106.667s47.851 106.667 106.667 106.667 106.667-47.851 106.667-106.667-47.851-106.667-106.667-106.667zM853.333 778.667c-35.285 0-64-28.715-64-64s28.715-64 64-64 64 28.715 64 64-28.715 64-64 64zM789.333 586.667c-23.573 0-42.667-19.093-42.667-42.667s19.093-42.667 42.667-42.667 42.667 19.093 42.667 42.667-19.093 42.667-42.667 42.667v0zM917.333 586.667c-23.573 0-42.667-19.093-42.667-42.667s19.093-42.667 42.667-42.667 42.667 19.093 42.667 42.667-19.093 42.667-42.667 42.667v0z" />
<glyph unicode="&#xe903;" glyph-name="armchair" d="M810.688 362.667c-1.088 0-2.197 0.085-3.264 0.256-11.627 1.792-19.627 12.715-17.835 24.341l39.957 259.776c10.411 67.755-9.195 136.448-53.824 188.459s-109.547 81.835-178.091 81.835h-171.221c-68.544 0-133.461-29.824-178.112-81.877-44.629-52.011-64.256-120.704-53.824-188.459l39.957-259.755c1.792-11.669-6.208-22.549-17.835-24.363-11.627-1.643-22.549 6.187-24.32 17.856l-39.979 259.755c-12.331 80.085 10.88 161.28 63.616 222.741 52.736 61.504 129.451 96.768 210.475 96.768h171.2c81.045 0 157.76-35.264 210.475-96.747 52.779-61.483 75.947-142.677 63.595-222.741l-39.957-259.755c-1.579-10.539-10.667-18.091-21.013-18.091zM789.333-21.333h-554.667c-82.347 0-149.333 67.008-149.333 149.333v85.333c0 12.907-7.723 24.491-19.648 29.504-39.915 16.619-65.685 55.296-65.685 98.496 0 58.816 47.851 106.667 106.667 106.667 94.101 0 170.667-76.565 170.667-170.667v-31.168c37.781 13.504 110.869 31.168 234.667 31.168s196.885-17.664 234.667-31.168v31.168c0 94.101 76.565 170.667 170.667 170.667 58.816 0 106.667-47.851 106.667-106.667 0-43.2-25.771-81.899-65.685-98.496-11.947-5.013-19.648-16.597-19.648-29.504v-85.333c0-82.325-67.008-149.333-149.333-149.333zM106.667 405.333c-35.285 0-64-28.715-64-64 0-25.941 15.467-49.173 39.424-59.115 27.883-11.584 45.909-38.656 45.909-68.885v-85.333c0-58.816 47.851-106.667 106.667-106.667h554.667c58.816 0 106.667 47.851 106.667 106.667v85.333c0 30.208 18.048 57.259 45.909 68.885 23.957 9.941 39.424 33.173 39.424 59.115 0 35.285-28.715 64-64 64-70.592 0-128-57.408-128-128v-103.851l-33.173 22.101c-0.405 0.299-63.616 39.083-244.16 39.083s-243.755-38.784-244.373-39.211l-32.768-20.843-0.192 102.72c0 70.592-57.408 128-128 128zM618.667 512c-5.461 0-10.923 2.091-15.083 6.251l-42.667 42.667c-8.341 8.341-8.341 21.824 0 30.165l42.667 42.667c8.341 8.341 21.824 8.341 30.165 0s8.341-21.824 0-30.165l-27.584-27.584 27.584-27.584c8.341-8.341 8.341-21.824 0-30.165-4.16-4.16-9.621-6.251-15.083-6.251zM405.333 512c-5.461 0-10.923 2.091-15.083 6.251-8.341 8.341-8.341 21.824 0 30.165l27.584 27.584-27.584 27.584c-8.341 8.341-8.341 21.824 0 30.165s21.824 8.341 30.165 0l42.667-42.667c8.341-8.341 8.341-21.824 0-30.165l-42.667-42.667c-4.16-4.16-9.621-6.251-15.083-6.251zM512 490.667c-47.061 0-85.333 38.272-85.333 85.333s38.272 85.333 85.333 85.333 85.333-38.272 85.333-85.333-38.272-85.333-85.333-85.333zM512 618.667c-23.531 0-42.667-19.136-42.667-42.667s19.136-42.667 42.667-42.667c23.552 0 42.667 19.136 42.667 42.667s-19.115 42.667-42.667 42.667zM320 21.333h-42.667c-11.776 0-21.333-9.536-21.333-21.333v-42.667c0-11.797 9.557-21.333 21.333-21.333h42.667c11.776 0 21.333 9.536 21.333 21.333v42.667c0 11.797-9.557 21.333-21.333 21.333zM746.667 21.333h-42.667c-11.797 0-21.333-9.536-21.333-21.333v-42.667c0-11.797 9.536-21.333 21.333-21.333h42.667c11.797 0 21.333 9.536 21.333 21.333v42.667c0 11.797-9.536 21.333-21.333 21.333z" />
<glyph unicode="&#xe904;" glyph-name="arrow_down" d="M128 789.333l-128-136.576 512-546.091 512 546.091-128 136.576-384-409.579z" />
<glyph unicode="&#xe905;" glyph-name="arrow_left" d="M443.755 448l409.579 384-136.576 128-546.091-512 546.091-512 136.576 128z" />
<glyph unicode="&#xe906;" glyph-name="arrow_right" d="M170.667 64l136.576-128 546.091 512-546.091 512-136.576-128 409.579-384z" />
<glyph unicode="&#xe907;" glyph-name="arrow_up" d="M512 516.245l384-409.579 128 136.576-512 546.091-512-546.091 128-136.576z" />
<glyph unicode="&#xe908;" glyph-name="bomb" d="M832 960c-11.776 0-21.333-9.557-21.333-21.333v-85.333c0-11.776 9.557-21.333 21.333-21.333 11.797 0 21.333 9.557 21.333 21.333v85.333c0 11.776-9.557 21.333-21.333 21.333zM892.352 806.997c5.44 0 10.923 2.091 15.083 6.251l60.309 60.352c8.363 8.341 8.363 21.845 0 30.165-8.341 8.341-21.824 8.341-30.144 0l-60.331-60.352c-8.363-8.341-8.363-21.845 0-30.165 4.139-4.16 9.6-6.251 15.083-6.251zM756.587 813.248c4.16-4.16 9.621-6.251 15.083-6.251s10.923 2.091 15.083 6.251c8.341 8.32 8.341 21.824 0 30.165l-60.331 60.352c-8.341 8.341-21.824 8.341-30.165 0-8.341-8.32-8.341-21.824 0-30.165l60.331-60.352zM1002.667 789.333h-85.333c-11.776 0-21.333-9.557-21.333-21.333s9.557-21.333 21.333-21.333h85.333c11.776 0 21.333 9.557 21.333 21.333s-9.557 21.333-21.333 21.333zM907.413 722.752c-8.341 8.32-21.824 8.341-30.187 0-8.363-8.363-8.363-21.845 0-30.187l60.373-60.309c4.139-4.139 9.6-6.229 15.083-6.229 5.461 0 10.923 2.069 15.104 6.229 8.341 8.363 8.341 21.845 0 30.187l-60.373 60.309zM195.008 487.339c-56.107-39.083-93.632-97.664-105.643-164.992-12.032-67.307 2.88-135.296 41.984-191.381 4.139-5.952 10.773-9.152 17.515-9.152 4.203 0 8.448 1.237 12.181 3.819 9.685 6.72 12.053 20.032 5.312 29.717-67.264 96.491-43.477 229.717 53.035 296.981 9.685 6.72 12.053 20.032 5.312 29.696s-20.011 12.032-29.696 5.312zM810.667 789.333h-42.667c-35.285 0-64-28.715-64-64s-28.715-64-64-64-64 28.715-64 64c0 70.592-57.408 128-128 128s-128-57.408-128-128v-42.667h-64c-11.776 0-21.333-9.557-21.333-21.333v-60.032c-138.965-45.717-234.667-176.64-234.667-323.968 0-188.203 153.131-341.333 341.333-341.333 188.224 0 341.333 153.131 341.333 341.333 0 147.328-95.701 278.251-234.667 323.968v60.032c0 11.776-9.557 21.333-21.333 21.333h-64v42.667c0 47.061 38.272 85.333 85.333 85.333s85.333-38.272 85.333-85.333c0-58.816 47.851-106.667 106.667-106.667s106.667 47.851 106.667 106.667c0 11.755 9.579 21.333 21.333 21.333h42.667c11.776 0 21.333 9.557 21.333 21.333s-9.557 21.333-21.333 21.333zM420.971 564.907c128.939-35.648 219.029-153.899 219.029-287.573 0-164.693-133.952-298.667-298.667-298.667-164.693 0-298.667 133.973-298.667 298.667 0 133.675 90.069 251.925 219.029 287.573 9.237 2.56 15.637 10.965 15.637 20.565v54.528h128v-54.528c0-9.579 6.421-17.984 15.637-20.565z" />
<glyph unicode="&#xe909;" glyph-name="book" d="M512-64c-3.136 0-6.272 0.661-9.173 2.069l-490.667 255.723c-7.424 3.541-12.16 11.029-12.16 19.243v660.672c0 7.317 3.755 14.101 9.941 18.027 6.165 3.904 13.952 4.352 20.565 1.216l481.493-251.371 481.493 251.392c6.613 3.115 14.357 2.667 20.544-1.259 6.208-3.904 9.963-10.688 9.963-18.005v-660.672c0-8.235-4.757-15.701-12.16-19.243l-490.667-255.723c-2.901-1.408-6.037-2.069-9.173-2.069zM42.667 226.517l469.333-245.611 469.333 245.611v613.44l-460.16-241.237c-5.781-2.752-12.544-2.752-18.325 0l-460.181 241.237v-613.44zM512 699.904l-414.571 219.541c-10.645 5.056-15.147 17.792-10.091 28.416 5.077 10.645 17.792 15.104 28.437 10.091l396.224-210.837 396.203 210.837c10.667 4.992 23.381 0.533 28.459-10.091 5.035-10.603 0.533-23.339-10.091-28.416l-414.571-219.541zM490.667 617.963h42.667v-660.672h-42.667v660.672z" />
<glyph unicode="&#xe90a;" glyph-name="book_dowload" d="M554.667-64h-448c-58.816 0-106.667 47.851-106.667 106.667v810.667c0 11.797 9.557 21.333 21.333 21.333s21.333-9.536 21.333-21.333v-810.667c0-35.285 28.715-64 64-64h448c11.776 0 21.333-9.536 21.333-21.333s-9.557-21.333-21.333-21.333zM832 469.355c-11.776 0-21.333 9.536-21.333 21.333v255.979h-704c-58.816 0-106.667 47.851-106.667 106.667s47.851 106.667 106.667 106.667h725.333c11.776 0 21.333-9.536 21.333-21.333s-9.557-21.333-21.333-21.333h-725.333c-35.285 0-64-28.715-64-64s28.715-64 64-64h746.667v-298.645c0-11.797-9.557-21.333-21.333-21.333zM768-64c-141.163 0-256 114.837-256 256s114.837 256 256 256 256-114.837 256-256-114.837-256-256-256zM768 405.333c-117.632 0-213.333-95.701-213.333-213.333s95.701-213.333 213.333-213.333 213.333 95.701 213.333 213.333-95.701 213.333-213.333 213.333zM768 64c-11.776 0-21.333 9.536-21.333 21.333v213.333c0 11.797 9.557 21.333 21.333 21.333s21.333-9.536 21.333-21.333v-213.333c0-11.797-9.557-21.333-21.333-21.333zM768 55.168l-100.416 100.416c-8.341 8.341-8.341 21.824 0 30.165s21.824 8.341 30.165 0l70.251-70.251 70.251 70.251c8.341 8.341 21.824 8.341 30.165 0s8.341-21.824 0-30.165l-100.416-100.416zM106.667 874.667h704v-42.667h-704v42.667z" />
<glyph unicode="&#xe90b;" glyph-name="box_files" d="M0 618.667v-682.667h1024v682.667h-1024zM981.333-21.333h-938.667v597.333h938.667v-597.333zM810.667 960h-597.333l-213.333-341.333h48l186.667 309.333h554.667l186.667-309.333h48zM862.251 693.333h-700.48l-12.437-21.333h725.333zM830.251 757.333h-636.48l-12.437-21.333h661.333zM798.208 821.333h-572.437l-12.437-21.333h597.333zM766.208 885.333h-508.437l-12.437-21.333h533.333zM661.333 192h-298.667c-47.061 0-85.333 38.272-85.333 85.333s38.272 85.333 85.333 85.333h298.667c47.061 0 85.333-38.272 85.333-85.333s-38.272-85.333-85.333-85.333zM362.667 320c-23.531 0-42.667-19.136-42.667-42.667s19.136-42.667 42.667-42.667h298.667c23.531 0 42.667 19.136 42.667 42.667s-19.136 42.667-42.667 42.667h-298.667z" />
<glyph unicode="&#xe90c;" glyph-name="browser" d="M917.333-64h-810.667c-58.816 0-106.667 47.851-106.667 106.667v810.667c0 58.816 47.851 106.667 106.667 106.667h810.667c58.816 0 106.667-47.851 106.667-106.667v-810.667c0-58.816-47.851-106.667-106.667-106.667zM106.667 917.333c-35.285 0-64-28.715-64-64v-810.667c0-35.285 28.715-64 64-64h810.667c35.285 0 64 28.715 64 64v810.667c0 35.285-28.715 64-64 64h-810.667zM1002.667 704h-981.333c-11.797 0-21.333 9.557-21.333 21.333s9.536 21.333 21.333 21.333h981.333c11.797 0 21.333-9.557 21.333-21.333s-9.536-21.333-21.333-21.333zM640 832c0-23.564-19.103-42.667-42.667-42.667s-42.667 19.103-42.667 42.667c0 23.564 19.103 42.667 42.667 42.667s42.667-19.103 42.667-42.667zM768 832c0-23.564-19.103-42.667-42.667-42.667s-42.667 19.103-42.667 42.667c0 23.564 19.103 42.667 42.667 42.667s42.667-19.103 42.667-42.667zM896 832c0-23.564-19.103-42.667-42.667-42.667s-42.667 19.103-42.667 42.667c0 23.564 19.103 42.667 42.667 42.667s42.667-19.103 42.667-42.667z" />
<glyph unicode="&#xe90d;" glyph-name="camera" d="M704 576h-341.333c-58.816 0-106.667 47.851-106.667 106.667v277.333h554.667v-277.333c0-58.816-47.851-106.667-106.667-106.667zM298.667 917.333v-234.667c0-35.285 28.715-64 64-64h341.333c35.285 0 64 28.715 64 64v234.667h-469.333zM725.333-64h-384v533.333h384v-533.333zM384-21.333h298.667v448h-298.667v-448zM192 106.667c-58.816 0-106.667 47.851-106.667 106.667s47.851 106.667 106.667 106.667 106.667-47.851 106.667-106.667-47.851-106.667-106.667-106.667zM192 277.333c-35.285 0-64-28.715-64-64s28.715-64 64-64 64 28.715 64 64-28.715 64-64 64zM618.667 128c-8.939 0-17.259 5.675-20.245 14.592l-37.803 113.408h-54.592l-37.803-113.408c-3.733-11.136-15.787-17.28-26.987-13.483-11.179 3.733-17.216 15.808-13.483 26.987l42.667 128c2.923 8.704 11.051 14.571 20.245 14.571h85.333c9.216 0 17.344-5.867 20.245-14.592l42.667-128c3.733-11.179-2.304-23.253-13.504-27.008-2.24-0.725-4.523-1.067-6.741-1.067zM341.333 874.667h42.667v-213.333h-42.667v213.333zM426.667 874.667h42.667v-213.333h-42.667v213.333zM512 874.667h42.667v-213.333h-42.667v213.333zM597.333 874.667h42.667v-213.333h-42.667v213.333zM682.667 874.667h42.667v-213.333h-42.667v213.333zM384 597.333h42.667v-128h-42.667v128zM640 597.333h42.667v-128h-42.667v128zM938.667 149.333h-170.667v128h170.667v-128zM810.667 192h85.333v42.667h-85.333v-42.667zM874.667 0h-170.667v42.667h170.667c58.816 0 106.667 47.851 106.667 106.667v106.667c0 58.816-47.851 106.667-106.667 106.667h-170.667v42.667h170.667c82.325 0 149.333-67.008 149.333-149.333v-106.667c0-82.325-67.008-149.333-149.333-149.333zM362.667 0h-213.333c-82.347 0-149.333 67.008-149.333 149.333v106.667c0 82.325 66.987 149.333 149.333 149.333h213.333v-42.667h-213.333c-58.816 0-106.667-47.851-106.667-106.667v-106.667c0-58.816 47.851-106.667 106.667-106.667h213.333v-42.667z" />
<glyph unicode="&#xe90e;" glyph-name="camera_polaroid" d="M938.667 128h-136.576v42.667h136.576c23.531 0 42.667 19.136 42.667 42.667v100.992l-85.333 149.333v347.008c0 58.816-47.851 106.667-106.667 106.667h-554.667c-58.816 0-106.667-47.851-106.667-106.667v-347.008l-85.333-149.333v-100.992c0-23.531 19.136-42.667 42.667-42.667h134.507v-42.667h-134.507c-47.061 0-85.333 38.272-85.333 85.333v112.341l85.333 149.333v335.659c0 82.347 66.987 149.333 149.333 149.333h554.667c82.347 0 149.333-66.987 149.333-149.333v-335.659l85.333-149.333v-112.341c0-47.061-38.272-85.333-85.333-85.333zM976.256-64h-921.088l36.416 36.416c119.723 119.744 121.749 260.885 121.749 262.293l0.085 21.227 21.248 0.064h575.936l0.064-21.312c0-1.621 1.856-162.24 120.32-260.971l45.269-37.717zM154.667-21.333h710.379c-75.093 85.781-92.075 190.293-95.936 234.667h-514.453c-4.331-42.155-22.656-139.733-99.989-234.667zM512 556.8c-81.173 0-147.2 66.027-147.2 147.2s66.027 147.2 147.2 147.2 147.2-66.027 147.2-147.2-66.027-147.2-147.2-147.2zM512 812.8c-59.989 0-108.8-48.811-108.8-108.8s48.811-108.8 108.8-108.8 108.8 48.811 108.8 108.8-48.811 108.8-108.8 108.8zM245.333 532.011c-17.643 0-32 14.357-32 32s14.357 32 32 32 32-14.357 32-32-14.357-32-32-32zM245.333 574.677c-5.888 0-10.667-4.779-10.667-10.667s4.779-10.667 10.667-10.667 10.667 4.779 10.667 10.667-4.779 10.667-10.667 10.667zM853.333 724.011h-149.333v128h149.333v-128zM746.667 766.677h64v42.667h-64v-42.667zM448 938.667h42.667v-113.963h-42.667v113.963zM533.333 938.667h42.667v-113.963h-42.667v113.963zM448 583.317h42.667v-113.984h-42.667v113.984zM533.333 583.317h42.667v-113.984h-42.667v113.984zM106.667 490.667h810.667v-42.667h-810.667v42.667zM21.333 340.011h981.333v-42.667h-981.333v42.667zM85.333 256h853.333v-42.667h-853.333v42.667zM173.675 64h671.445v-42.667h-671.445v42.667z" />
<glyph unicode="&#xe90f;" glyph-name="camera_video" d="M704 106.667h-597.333c-35.285 0-64 28.715-64 64v384c0 35.285 28.715 64 64 64h597.333c35.285 0 64-28.715 64-64v-384c0-35.285-28.715-64-64-64zM106.667 576c-11.776 0-21.333-9.579-21.333-21.333v-384c0-11.755 9.557-21.333 21.333-21.333h597.333c11.776 0 21.333 9.579 21.333 21.333v384c0 11.755-9.557 21.333-21.333 21.333h-597.333zM256 256c-47.061 0-85.333 38.272-85.333 85.333s38.272 85.333 85.333 85.333 85.333-38.272 85.333-85.333-38.272-85.333-85.333-85.333zM256 384c-23.531 0-42.667-19.115-42.667-42.667s19.136-42.667 42.667-42.667 42.667 19.115 42.667 42.667-19.136 42.667-42.667 42.667zM554.667 256c-47.061 0-85.333 38.272-85.333 85.333s38.272 85.333 85.333 85.333 85.333-38.272 85.333-85.333-38.272-85.333-85.333-85.333zM554.667 384c-23.552 0-42.667-19.115-42.667-42.667s19.115-42.667 42.667-42.667 42.667 19.115 42.667 42.667-19.115 42.667-42.667 42.667zM554.667 384h-298.667c-11.797 0-21.333 9.557-21.333 21.333s9.536 21.333 21.333 21.333h298.667c11.797 0 21.333-9.557 21.333-21.333s-9.536-21.333-21.333-21.333zM490.667 576c-11.797 0-21.333 9.557-21.333 21.333v85.333c0 11.755-9.557 21.333-21.333 21.333h-426.667c-11.797 0-21.333 9.557-21.333 21.333s9.536 21.333 21.333 21.333h426.667c35.285 0 64-28.715 64-64v-85.333c0-11.776-9.536-21.333-21.333-21.333zM661.333 576c-11.797 0-21.333 9.557-21.333 21.333v85.333c0 35.285 28.715 64 64 64h85.333c11.797 0 21.333-9.557 21.333-21.333s-9.536-21.333-21.333-21.333h-85.333c-11.776 0-21.333-9.557-21.333-21.333v-85.333c0-11.776-9.536-21.333-21.333-21.333zM960 661.333h-128c-35.285 0-64 28.715-64 64s28.715 64 64 64h128c35.285 0 64-28.715 64-64s-28.715-64-64-64zM832 746.667c-11.776 0-21.333-9.579-21.333-21.333s9.557-21.333 21.333-21.333h128c11.776 0 21.333 9.579 21.333 21.333s-9.557 21.333-21.333 21.333h-128zM979.691 160.811c-5.781 0-11.541 1.131-17.024 3.413l-224.213 93.419c-10.88 4.523-16.043 17.024-11.477 27.904 4.544 10.88 17.088 16 27.904 11.477l224.213-93.419 2.24 1.515v272.427l-10.475 21.205 8.235-19.691-224.213-93.419c-10.837-4.565-23.36 0.597-27.904 11.477-4.565 10.88 0.597 23.36 11.477 27.904l224.192 93.419c13.696 5.739 29.269 4.224 41.621-4.032s19.733-22.037 19.733-36.864v-272.427c0-14.827-7.381-28.629-19.712-36.885-7.403-4.907-15.979-7.424-24.597-7.424z" />
<glyph unicode="&#xe910;" glyph-name="clipboard" d="M448.533 256c-5.696 0-11.264 2.24-15.467 6.4-6.656 6.656-8.299 16.832-4.096 25.195l61.717 123.499c1.067 2.176 2.432 4.011 4.096 5.76l416.768 416.683c12.971 12.971 28.736 19.797 45.632 19.797 26.432 0 51.349-17.109 61.888-42.581 10.069-24.32 4.501-50.411-14.997-69.824l-416.661-416.811c-1.664-1.621-3.584-3.093-5.675-4.075l-123.563-61.76c-3.008-1.536-6.336-2.283-9.643-2.283zM528.213 388.416l-30.869-61.76 61.76 30.805 414.229 414.293c6.869 6.869 8.704 14.379 5.461 22.272-3.733 8.875-12.992 15.595-21.611 15.595-5.141 0-10.112-2.347-14.763-6.997l-414.208-414.208zM926.997 672.789c-5.589 0-11.157 2.155-15.467 6.4l-61.781 61.76c-8.448 8.533-8.448 22.357 0 30.891 8.533 8.512 22.336 8.512 30.784 0l61.781-61.76c8.491-8.533 8.491-22.357 0-30.891-4.139-4.288-9.728-6.4-15.317-6.4zM768 0c0-11.776-9.536-21.333-21.333-21.333h-682.667c-11.755 0-21.333 9.557-21.333 21.333v810.667c0 11.755 9.579 21.333 21.333 21.333h293.952c-10.219 11.349-16.619 26.197-16.619 42.667h-277.333c-35.349 0-64-28.651-64-64v-810.667c0-35.349 28.651-64 64-64h682.667c35.328 0 64 28.651 64 38.464v530.325l-42.667-42.667v-462.123zM746.667 874.667h-277.333c0-16.469-6.4-31.317-16.597-42.667h293.931c11.797 0 21.333-9.579 21.333-21.333v-78.016l42.667 42.667v35.349c0 35.349-28.672 64-64 64zM490.667 874.667c0 47.061-38.272 85.333-85.333 85.333s-85.333-38.272-85.333-85.333h-128v-170.667h426.667v170.667h-128zM405.333 917.333c23.531 0 42.667-19.136 42.667-42.667s-19.136-42.667-42.667-42.667-42.667 19.136-42.667 42.667 19.136 42.667 42.667 42.667z" />
<glyph unicode="&#xe911;" glyph-name="cocktail" d="M874.667 960c-82.325 0-149.333-67.008-149.333-149.333 0-7.211 0.789-14.293 1.792-21.333h-397.291l-106.581 126.912c-28.203 28.203-65.707 43.755-105.6 43.755h-117.653v-42.667h117.653c28.501 0 55.275-11.115 75.435-31.253l81.237-96.747h-82.325c-8.619 0-16.427-5.184-19.712-13.163-3.307-7.979-1.472-17.152 4.629-23.253l335.083-418.859v-355.392h-149.333c-11.797 0-21.333-9.536-21.333-21.333s9.536-21.333 21.333-21.333h341.333c11.797 0 21.333 9.536 21.333 21.333s-9.536 21.333-21.333 21.333h-149.333v355.392l269.205 336.491c16.213-5.845 33.323-9.216 50.795-9.216 82.325 0 149.333 67.008 149.333 149.333s-67.008 149.333-149.333 149.333zM674.837 554.667h-283.008l-16.491 21.333h315.968l-16.469-21.333zM342.379 618.667l-98.88 128h579.669l-98.88-128h-381.909zM874.667 704c-7.467 0-14.805 1.024-22.016 2.539l37.099 46.379c6.101 6.101 7.936 15.275 4.629 23.253-3.285 7.979-11.093 13.163-19.712 13.163h-104.299c-1.408 6.997-2.368 14.101-2.368 21.333 0 58.816 47.851 106.667 106.667 106.667s106.667-47.851 106.667-106.667-47.851-106.667-106.667-106.667z" />
<glyph unicode="&#xe912;" glyph-name="computer_imac_new" d="M938.667 64h-853.333c-47.061 0-85.333 39.979-85.333 89.109v717.781c0 49.131 38.272 89.109 85.333 89.109h853.333c47.061 0 85.333-39.979 85.333-89.109v-717.781c0-49.131-38.272-89.109-85.333-89.109zM85.333 917.333c-23.531 0-42.667-20.843-42.667-46.443v-717.781c0-25.6 19.136-46.443 42.667-46.443h853.333c23.552 0 42.667 20.843 42.667 46.443v717.781c0 25.6-19.115 46.443-42.667 46.443h-853.333zM554.667 192c0-23.564-19.103-42.667-42.667-42.667s-42.667 19.103-42.667 42.667c0 23.564 19.103 42.667 42.667 42.667s42.667-19.103 42.667-42.667zM21.333 320h981.333v-42.667h-981.333v42.667zM810.667-64h-597.333c-11.776 0-21.333 9.557-21.333 21.333s9.557 21.333 21.333 21.333h597.333c11.776 0 21.333-9.557 21.333-21.333s-9.557-21.333-21.333-21.333zM661.76-64c-0.128 0-0.277 0-0.427 0h-298.667c-6.827 0-13.291 3.285-17.301 8.875-4.011 5.568-5.099 12.715-2.965 19.2l42.667 128c2.944 8.725 11.051 14.592 20.267 14.592h213.333c9.216 0 17.344-5.867 20.245-14.592l41.365-124.181c1.813-3.093 2.816-6.72 2.816-10.56 0-11.776-9.557-21.333-21.333-21.333zM392.256-21.333h239.509l-28.459 85.333h-182.592l-28.459-85.333z" />
<glyph unicode="&#xe913;" glyph-name="computer_imac_old" d="M938.667 64h-853.333c-47.061 0-85.333 38.272-85.333 85.333v725.333c0 47.061 38.272 85.333 85.333 85.333h853.333c47.061 0 85.333-38.272 85.333-85.333v-725.333c0-47.061-38.272-85.333-85.333-85.333zM85.333 917.333c-23.531 0-42.667-19.136-42.667-42.667v-725.333c0-23.552 19.136-42.667 42.667-42.667h853.333c23.552 0 42.667 19.115 42.667 42.667v725.333c0 23.531-19.115 42.667-42.667 42.667h-853.333zM810.667-64h-597.333c-11.776 0-21.333 9.557-21.333 21.333s9.557 21.333 21.333 21.333h597.333c11.776 0 21.333-9.557 21.333-21.333s-9.557-21.333-21.333-21.333zM661.76-64c-0.128 0-0.277 0-0.427 0h-298.667c-6.848 0-13.291 3.285-17.301 8.875-4.011 5.568-5.099 12.715-2.944 19.2l42.667 128c2.923 8.725 11.051 14.592 20.245 14.592h213.333c9.216 0 17.344-5.867 20.245-14.592l41.365-124.181c1.813-3.093 2.816-6.72 2.816-10.56 0-11.776-9.557-21.333-21.333-21.333zM392.256-21.333h239.488l-28.459 85.333h-182.571l-28.459-85.333zM917.333 320h-810.667v533.333h810.667v-533.333zM149.333 362.667h725.333v448h-725.333v-448zM554.667 213.333c0-23.564-19.103-42.667-42.667-42.667s-42.667 19.103-42.667 42.667c0 23.564 19.103 42.667 42.667 42.667s42.667-19.103 42.667-42.667z" />
<glyph unicode="&#xe914;" glyph-name="computer_macintosh" d="M917.333-64h-810.667c-11.776 0-21.333 9.557-21.333 21.333v128c0 11.776 9.557 21.333 21.333 21.333h810.667c11.776 0 21.333-9.557 21.333-21.333v-128c0-11.776-9.557-21.333-21.333-21.333zM128-21.333h768v85.333h-768v-85.333zM960 64h-896c-35.285 0-64 28.715-64 64v704c0 70.592 57.408 128 128 128h768c70.592 0 128-57.408 128-128v-704c0-35.285-28.715-64-64-64zM128 917.333c-47.061 0-85.333-38.272-85.333-85.333v-704c0-11.755 9.579-21.333 21.333-21.333h896c11.755 0 21.333 9.579 21.333 21.333v704c0 47.061-38.272 85.333-85.333 85.333h-768zM846.741 277.333h-669.504c-38.912 0-70.571 26.965-70.571 60.117v455.765c0 33.152 31.659 60.117 70.571 60.117h669.547c38.891 0 70.549-26.965 70.549-60.117v-455.765c0-33.152-31.659-60.117-70.592-60.117zM177.237 810.667c-16.448 0-27.904-9.195-27.904-17.451v-455.765c0-8.235 11.456-17.451 27.904-17.451h669.547c16.427 0 27.883 9.216 27.883 17.451v455.765c0 8.256-11.456 17.451-27.925 17.451h-669.504zM213.333 192h-85.333c-11.776 0-21.333 9.557-21.333 21.333s9.557 21.333 21.333 21.333h85.333c11.776 0 21.333-9.557 21.333-21.333s-9.557-21.333-21.333-21.333zM896 192h-213.333c-11.776 0-21.333 9.557-21.333 21.333s9.557 21.333 21.333 21.333h213.333c11.776 0 21.333-9.557 21.333-21.333s-9.557-21.333-21.333-21.333zM362.667 618.667c-11.776 0-21.333 9.557-21.333 21.333v85.333c0 11.776 9.557 21.333 21.333 21.333s21.333-9.557 21.333-21.333v-85.333c0-11.776-9.557-21.333-21.333-21.333zM661.333 618.667c-11.776 0-21.333 9.557-21.333 21.333v85.333c0 11.776 9.557 21.333 21.333 21.333s21.333-9.557 21.333-21.333v-85.333c0-11.776-9.557-21.333-21.333-21.333zM533.333 533.333h-42.667c-11.776 0-21.333 9.557-21.333 21.333s9.557 21.333 21.333 21.333h21.333v106.667c0 11.776 9.557 21.333 21.333 21.333s21.333-9.557 21.333-21.333v-128c0-11.776-9.557-21.333-21.333-21.333zM576 384h-128c-35.285 0-64 28.715-64 64 0 11.776 9.557 21.333 21.333 21.333s21.333-9.557 21.333-21.333c0-11.755 9.579-21.333 21.333-21.333h128c11.755 0 21.333 9.579 21.333 21.333 0 11.776 9.557 21.333 21.333 21.333s21.333-9.557 21.333-21.333c0-35.285-28.715-64-64-64z" />
<glyph unicode="&#xe915;" glyph-name="computer_macintosh_vintage" d="M746.667 234.667h-512c-35.285 0-64 28.715-64 64v512c0 82.347 66.987 149.333 149.333 149.333h341.333c82.347 0 149.333-66.987 149.333-149.333v-512c0-35.285-28.715-64-64-64zM320 917.333c-58.816 0-106.667-47.851-106.667-106.667v-512c0-11.755 9.579-21.333 21.333-21.333h512c11.755 0 21.333 9.579 21.333 21.333v512c0 58.816-47.851 106.667-106.667 106.667h-341.333zM661.333 490.667h-341.333c-35.285 0-64 28.715-64 64v256c0 35.285 28.715 64 64 64h341.333c35.285 0 64-28.715 64-64v-256c0-35.285-28.715-64-64-64zM320 832c-11.755 0-21.333-9.579-21.333-21.333v-256c0-11.755 9.579-21.333 21.333-21.333h341.333c11.755 0 21.333 9.579 21.333 21.333v256c0 11.755-9.579 21.333-21.333 21.333h-341.333zM661.333 405.333h-128c-11.776 0-21.333 9.557-21.333 21.333s9.557 21.333 21.333 21.333h128c11.776 0 21.333-9.557 21.333-21.333s-9.557-21.333-21.333-21.333zM1002.667-64h-981.333c-11.776 0-21.333 9.557-21.333 21.333v85.333c0 5.653 2.24 11.093 6.251 15.083l128 128c3.989 4.011 9.429 6.251 15.083 6.251h725.333c5.653 0 11.093-2.24 15.083-6.251l128-128c4.011-3.989 6.251-9.429 6.251-15.083v-85.333c0-11.776-9.557-21.333-21.333-21.333zM42.667-21.333h938.667v55.168l-115.499 115.499h-707.669l-115.499-115.499v-55.168zM1002.667 21.333h-981.333c-11.776 0-21.333 9.557-21.333 21.333s9.557 21.333 21.333 21.333h981.333c11.776 0 21.333-9.557 21.333-21.333s-9.557-21.333-21.333-21.333zM917.333 149.333h-42.667v42.667h42.667c35.285 0 64 28.715 64 64s-28.715 64-64 64h-128v42.667h128c58.816 0 106.667-47.851 106.667-106.667s-47.851-106.667-106.667-106.667zM256 128c-11.776 0-21.333-9.536-21.333-21.333s9.557-21.333 21.333-21.333c11.776 0 21.333 9.536 21.333 21.333s-9.557 21.333-21.333 21.333v0zM384 128c-11.776 0-21.333-9.536-21.333-21.333s9.557-21.333 21.333-21.333c11.776 0 21.333 9.536 21.333 21.333s-9.557 21.333-21.333 21.333v0zM512 128c-11.776 0-21.333-9.536-21.333-21.333s9.557-21.333 21.333-21.333c11.776 0 21.333 9.536 21.333 21.333s-9.557 21.333-21.333 21.333v0zM640 128c-11.776 0-21.333-9.536-21.333-21.333s9.557-21.333 21.333-21.333c11.776 0 21.333 9.536 21.333 21.333s-9.557 21.333-21.333 21.333v0zM768 128c-11.776 0-21.333-9.536-21.333-21.333s9.557-21.333 21.333-21.333c11.776 0 21.333 9.536 21.333 21.333s-9.557 21.333-21.333 21.333v0z" />
<glyph unicode="&#xe916;" glyph-name="computer_network" d="M192 490.667h64v-42.667h-64v42.667zM256 533.333h-195.285c-33.493 0-60.715 28.715-60.715 64v298.667c0 35.285 27.221 64 60.715 64h433.259c33.472 0 60.693-28.715 60.693-64v-256h-42.667v256c0 11.755-8.085 21.333-18.048 21.333h-433.237c-9.963 0-18.048-9.579-18.048-21.333v-298.667c0-11.755 8.085-21.333 18.048-21.333h195.285v-42.667zM192 448h-85.333c-11.797 0-21.333 9.557-21.333 21.333s9.536 21.333 21.333 21.333h85.333c11.797 0 21.333-9.557 21.333-21.333s-9.536-21.333-21.333-21.333zM0 661.333h554.667v-42.667h-554.667v42.667zM661.333-64c-11.797 0-21.333 9.557-21.333 21.333v85.333c0 11.776 9.536 21.333 21.333 21.333s21.333-9.557 21.333-21.333v-85.333c0-11.776-9.536-21.333-21.333-21.333zM845.781-64h-376.448c-11.797 0-21.333 9.557-21.333 21.333s9.536 21.333 21.333 21.333h376.448c11.797 0 21.333-9.557 21.333-21.333s-9.536-21.333-21.333-21.333zM934.4 21.333h-546.133c-49.408 0-89.6 44.011-89.6 98.133v358.4c0 54.101 40.192 98.133 89.6 98.133h546.133c49.408 0 89.6-44.011 89.6-98.133v-358.4c0-54.123-40.192-98.133-89.6-98.133zM388.267 533.333c-25.877 0-46.933-24.875-46.933-55.467v-358.4c0-30.592 21.056-55.467 46.933-55.467h546.133c25.877 0 46.933 24.875 46.933 55.467v358.4c0 30.592-21.056 55.467-46.933 55.467h-546.133zM1002.667 149.333h-682.667c-11.797 0-21.333 9.557-21.333 21.333s9.536 21.333 21.333 21.333h682.667c11.797 0 21.333-9.557 21.333-21.333s-9.536-21.333-21.333-21.333zM661.333 128c-11.797 0-21.333-9.536-21.333-21.333 0-11.776 9.536-21.333 21.333-21.333 11.776 0 21.333 9.557 21.333 21.333 0 11.797-9.557 21.333-21.333 21.333v0z" />
<glyph unicode="&#xe917;" glyph-name="contact" d="M1024 150.272h-64.917c-34.539-45.227-85.205-84.139-150.741-115.861-68.629-33.216-154.496-50.048-255.339-50.048-94.037 0-181.056 16.043-258.603 47.637-78.869 32.171-140.053 82.773-181.845 150.336-41.536 67.115-62.592 148.011-62.592 240.384 0 88 20.885 171.584 62.080 248.533 41.429 77.419 100.672 137.707 176.064 179.2 75.051 41.323 159.040 62.272 249.643 62.272 79.509 0 153.259-16.683 219.115-49.6 66.325-33.109 117.12-78.123 150.784-133.717 33.621-55.445 50.667-115.947 50.667-179.797 0-54.677-13.205-108.437-39.317-159.808-26.219-51.584-62.379-93.248-107.349-124.011-35.541-24.491-64.405-36.48-88.149-36.48-15.275 0-28.587 5.099-39.488 15.168-11.051 10.219-16.875 23.211-16.875 37.568 0 3.477 0 9.963 17.344 88.597l76.907 348.672h-66.752l-16.299-72.235-8.96-39.659-21.781 34.581c-19.861 31.531-43.691 55.211-70.805 70.443-27.051 15.125-55.787 22.805-85.397 22.805-39.381 0-80.939-13.888-123.499-41.237-42.901-27.584-79.445-69.781-108.629-125.333-29.312-55.765-44.16-112.107-44.16-167.445 0-44.544 9.387-85.845 27.925-122.944 18.24-36.523 42.069-63.808 70.784-81.131 28.8-17.344 58.688-26.133 88.896-26.133 27.456 0 55.36 7.68 82.965 22.869 28.48 15.637 54.635 36.736 77.717 62.677l25.536 28.693 3.861-37.888c2.709-26.411 6.741-37.163 8.896-41.259 5.931-11.243 14.997-19.627 27.819-25.792 13.632-6.571 32.341-9.856 55.552-9.856 76.011 0 147.392 35.477 212.267 105.557 73.579 78.869 110.869 170.304 110.869 271.829 0 71.104-17.707 137.877-52.587 198.443-41.067 70.357-97.92 124.053-168.917 159.595-71.573 35.925-153.6 54.101-243.861 54.101-116.672 0-217.088-25.749-298.453-76.544-81.323-50.731-145.045-125.077-189.397-220.864-36.48-78.464-54.976-162.069-54.976-248.661 0-77.504 15.467-150.677 45.973-217.408 24.064-52.011 60.416-98.795 107.989-138.987 47.701-40.256 106.347-70.827 174.315-90.923 68.651-20.331 144.811-30.613 226.368-30.613 88.363 0 164.693 11.371 226.859 33.877 62.208 22.464 116.501 53.312 161.344 91.712 35.2 30.037 62.336 59.776 81.152 88.683zM625.301 395.499c-14.165-38.933-32.789-71.595-55.339-97.28-22.571-25.579-46.677-45.248-71.723-58.411-25.707-13.504-50.795-20.352-74.603-20.352-36.587 0-69.163 15.957-96.875 47.488-27.072 30.784-40.789 73.792-40.789 127.787 0 33.003 6.336 69.611 18.837 108.736 12.544 39.317 29.568 73.301 50.539 100.992 21.269 28.075 43.797 48.917 67.008 61.888 23.765 13.291 49.472 20.032 76.395 20.032 41.28 0 76.736-15.68 105.344-46.613 28.181-30.485 42.475-73.216 42.475-126.997 0.064-39.019-7.147-78.507-21.269-117.269z" />
<glyph unicode="&#xe918;" glyph-name="crop" d="M725.333-64h-128c-11.797 0-21.333 9.557-21.333 21.333v85.333h-448c-11.797 0-21.333 9.557-21.333 21.333v448h-85.333c-11.797 0-21.333 9.557-21.333 21.333v128c0 11.776 9.536 21.333 21.333 21.333h85.333v85.333c0 11.776 9.536 21.333 21.333 21.333h128c11.797 0 21.333-9.557 21.333-21.333v-85.333h448c11.797 0 21.333-9.557 21.333-21.333v-448h85.333c11.797 0 21.333-9.557 21.333-21.333v-128c0-11.776-9.536-21.333-21.333-21.333h-85.333v-85.333c0-11.776-9.536-21.333-21.333-21.333zM618.667-21.333h85.333v85.333c0 11.776 9.536 21.333 21.333 21.333h85.333v85.333h-85.333c-11.797 0-21.333 9.557-21.333 21.333v448h-448c-11.797 0-21.333 9.557-21.333 21.333v85.333h-85.333v-85.333c0-11.776-9.536-21.333-21.333-21.333h-85.333v-85.333h85.333c11.797 0 21.333-9.557 21.333-21.333v-448h448c11.797 0 21.333-9.557 21.333-21.333v-85.333zM597.333 170.667h-341.333c-11.797 0-21.333 9.557-21.333 21.333v341.333c0 11.776 9.536 21.333 21.333 21.333h341.333c11.797 0 21.333-9.557 21.333-21.333v-341.333c0-11.776-9.536-21.333-21.333-21.333zM277.333 213.333h298.667v298.667h-298.667v-298.667zM256 170.667c-5.461 0-10.923 2.091-15.083 6.251-8.341 8.341-8.341 21.824 0 30.165l341.333 341.333c8.341 8.341 21.824 8.341 30.165 0s8.341-21.824 0-30.165l-341.333-341.333c-4.16-4.16-9.621-6.251-15.083-6.251zM725.333 640c-5.461 0-10.923 2.091-15.083 6.251-8.341 8.341-8.341 21.824 0 30.165l277.333 277.333c8.341 8.341 21.824 8.341 30.165 0s8.341-21.824 0-30.165l-277.333-277.333c-4.16-4.16-9.621-6.251-15.083-6.251zM320 640h-213.333c-11.797 0-21.333 9.557-21.333 21.333s9.536 21.333 21.333 21.333h213.333c11.797 0 21.333-9.557 21.333-21.333s-9.536-21.333-21.333-21.333zM256 512h-128c-11.797 0-21.333 9.557-21.333 21.333s9.536 21.333 21.333 21.333h128c11.797 0 21.333-9.557 21.333-21.333s-9.536-21.333-21.333-21.333zM725.333 170.667h-128c-11.797 0-21.333 9.557-21.333 21.333s9.536 21.333 21.333 21.333h128c11.797 0 21.333-9.557 21.333-21.333s-9.536-21.333-21.333-21.333zM725.333 42.667h-128c-11.797 0-21.333 9.557-21.333 21.333s9.536 21.333 21.333 21.333h128c11.797 0 21.333-9.557 21.333-21.333s-9.536-21.333-21.333-21.333z" />
<glyph unicode="&#xe919;" glyph-name="crown" d="M894.507 149.333h-765.013l-5.355 3.563c-77.739 51.627-124.139 138.027-124.139 231.104 0 152.917 124.416 277.333 277.333 277.333 44.139 0 88.064-10.645 127.019-30.763l-19.584-37.909c-33.408 17.259-69.547 26.005-107.435 26.005-129.387 0-234.667-105.28-234.667-234.667 0-76.672 37.205-147.968 99.861-192h738.944c62.656 44.032 99.861 115.328 99.861 192 0 129.387-105.28 234.667-234.667 234.667-37.931 0-74.091-8.768-107.52-26.069l-19.605 37.867c38.976 20.203 82.944 30.869 127.125 30.869 152.917 0 277.333-124.416 277.333-277.333 0-93.077-46.4-179.477-124.139-231.104l-5.355-3.563zM896-64h-768c-55.701 0-84.864 42.944-84.864 85.355 0 42.389 29.163 85.312 84.864 85.312h768c55.701 0 84.864-42.944 84.864-85.355 0-42.389-29.163-85.312-84.864-85.312zM128 64c-31.147 0-42.197-22.976-42.197-42.645 0-19.691 11.051-42.688 42.197-42.688h768c31.147 0 42.197 22.976 42.197 42.645 0 19.691-11.051 42.688-42.197 42.688h-768zM270.827 276.651c-8.768 0-16.96 5.44-20.096 14.144-10.667 29.845-16.064 61.205-16.064 93.205 0 152.917 124.416 277.333 277.333 277.333s277.333-124.416 277.333-277.333c0-31.787-5.355-62.976-15.915-92.715-3.968-11.093-16.213-16.832-27.243-12.949-11.115 3.947-16.896 16.149-12.971 27.243 8.939 25.131 13.461 51.499 13.461 78.421 0 129.387-105.28 234.667-234.667 234.667s-234.667-105.28-234.667-234.667c0-27.093 4.565-53.611 13.589-78.827 3.968-11.115-1.813-23.317-12.907-27.264-2.389-0.875-4.8-1.259-7.189-1.259zM512 704c-70.592 0-128 57.408-128 128s57.408 128 128 128 128-57.408 128-128-57.408-128-128-128zM512 917.333c-47.061 0-85.333-38.272-85.333-85.333s38.272-85.333 85.333-85.333 85.333 38.272 85.333 85.333-38.272 85.333-85.333 85.333zM618.667 810.667h-213.333c-11.776 0-21.333 9.536-21.333 21.333s9.557 21.333 21.333 21.333h213.333c11.776 0 21.333-9.536 21.333-21.333s-9.557-21.333-21.333-21.333zM512 618.667c-11.776 0-21.333 9.536-21.333 21.333v85.333c0 11.797 9.557 21.333 21.333 21.333s21.333-9.536 21.333-21.333v-85.333c0-11.797-9.557-21.333-21.333-21.333z" />
<glyph unicode="&#xe91a;" glyph-name="database" d="M512 576c-239.253 0-426.667 84.331-426.667 192s187.413 192 426.667 192 426.667-84.331 426.667-192-187.413-192-426.667-192zM512 917.333c-181.632 0-384-61.333-384-149.333s202.368-149.333 384-149.333c181.632 0 384 61.333 384 149.333s-202.368 149.333-384 149.333zM512 362.667c-239.253 0-426.667 84.331-426.667 192v192c0 11.797 9.536 21.333 21.333 21.333s21.333-9.536 21.333-21.333v-192c0-88 202.368-149.333 384-149.333s384 61.333 384 149.333v192c0 11.797 9.536 21.333 21.333 21.333s21.333-9.536 21.333-21.333v-192c0-107.669-187.413-192-426.667-192zM512 149.333c-239.253 0-426.667 84.331-426.667 192v213.333c0 11.797 9.536 21.333 21.333 21.333s21.333-9.536 21.333-21.333v-213.333c0-88 202.368-149.333 384-149.333s384 61.333 384 149.333v213.333c0 11.797 9.536 21.333 21.333 21.333s21.333-9.536 21.333-21.333v-213.333c0-107.669-187.413-192-426.667-192zM512-64c-239.253 0-426.667 84.331-426.667 192v213.333c0 11.797 9.536 21.333 21.333 21.333s21.333-9.536 21.333-21.333v-213.333c0-88 202.368-149.333 384-149.333s384 61.333 384 149.333v213.333c0 11.797 9.536 21.333 21.333 21.333s21.333-9.536 21.333-21.333v-213.333c0-107.669-187.413-192-426.667-192z" />
<glyph unicode="&#xe91b;" glyph-name="delete_erase" d="M0 448.021l18.795 17.515c19.307 13.205 333.312 323.797 516.288 323.797 4.16 0 488.917-0.021 488.917-0.021v-682.624c-2.496-0.043-486.379 0.043-488.917 0.043-182.976 0-496.981 310.528-516.288 323.733l-18.795 17.557zM981.333 746.069c0 0-443.541 0.597-446.251 0.597-146.112 0-388.523-223.915-471.083-298.667 94.059-74.368 324.971-298.624 471.083-298.624 2.091 0.021 446.251-0.576 446.251-0.576v597.269zM853.333 566.656l-51.925 51.925-118.955-118.4-118.443 118.485-51.925-51.883 118.080-118.656-118.165-117.632 52.032-53.077 118.293 118.293 117.803-118.379 53.12 52.075-118.571 118.592z" />
<glyph unicode="&#xe91c;" glyph-name="design_graphic_tablet" d="M938.667-64h-853.333c-47.061 0-85.333 38.379-85.333 85.589v641.835c0 47.211 38.272 85.589 85.333 85.589h426.667c11.776 0 21.333-9.579 21.333-21.397 0-11.797-9.557-21.397-21.333-21.397h-426.667c-23.531 0-42.667-19.179-42.667-42.795v-641.835c0-23.616 19.136-42.795 42.667-42.795h853.333c23.552 0 42.667 19.157 42.667 42.795v641.835c0 23.595-19.115 42.795-42.667 42.795-11.776 0-21.333 9.6-21.333 21.397 0 11.819 9.557 21.397 21.333 21.397 47.061 0 85.333-38.379 85.333-85.589v-641.835c0-47.211-38.272-85.589-85.333-85.589zM938.667 21.589h-725.333v641.835h213.333c11.776 0 21.333-9.579 21.333-21.397 0-11.797-9.557-21.397-21.333-21.397h-170.667v-556.245h640v556.245h-42.667c-11.776 0-21.333 9.6-21.333 21.397 0 11.819 9.557 21.397 21.333 21.397h85.333v-641.835zM170.667 64.384h-170.667v556.245h170.667v-556.245zM42.667 107.136h85.333v470.72h-85.333v-470.72zM372.053 373.291l56.299 177.515 383.808 384.917c32.256 32.363 88.448 32.363 120.704 0 33.28-33.365 33.28-87.637 0-121.003l-383.829-384.939-176.981-56.491zM465.877 527.936l-28.16-88.747 88.491 28.224 376.491 377.536c16.619 16.683 16.619 43.819 0 60.501-16.128 16.171-44.224 16.171-60.373 0l-376.448-377.515zM21.333 449.472h128v-42.795h-128v42.795zM21.333 278.315h128v-42.795h-128v42.795zM887.573 778.197c-5.461 0-10.923 2.091-15.083 6.272l-90.496 90.773c-8.341 8.384-8.341 21.888 0 30.251 8.341 8.384 21.824 8.384 30.165 0l90.496-90.773c8.363-8.363 8.363-21.888 0-30.251-4.139-4.224-9.621-6.272-15.083-6.272zM766.933 657.173c-5.483 0-10.944 2.091-15.083 6.251l-90.517 90.795c-8.341 8.363-8.341 21.867 0 30.251 8.341 8.363 21.824 8.363 30.165 0l90.517-90.773c8.341-8.384 8.341-21.888 0-30.272-4.181-4.181-9.621-6.251-15.083-6.251zM537.643 427.2c-5.483 0-10.944 2.091-15.083 6.251l-90.517 90.795c-8.341 8.363-8.341 21.888 0 30.251 8.341 8.384 21.824 8.384 30.165 0l90.517-90.773c8.341-8.384 8.341-21.888 0-30.272-4.181-4.16-9.621-6.251-15.083-6.251zM362.667 342.507c-5.461 0-10.923 2.091-15.083 6.272-8.341 8.363-8.341 21.888 0 30.251l42.219 42.325c8.341 8.384 21.824 8.384 30.165 0 8.341-8.363 8.341-21.867 0-30.251l-42.219-42.325c-4.16-4.203-9.621-6.272-15.083-6.272z" />
<glyph unicode="&#xe91d;" glyph-name="design_pencil_rule" d="M917.333-64h-298.667c-11.797 0-21.333 9.557-21.333 21.333v981.333c0 11.776 9.536 21.333 21.333 21.333h298.667c11.797 0 21.333-9.557 21.333-21.333v-981.333c0-11.776-9.536-21.333-21.333-21.333zM640-21.333h256v938.667h-256v-938.667zM618.667 789.333h106.667v-42.667h-106.667v42.667zM618.667 661.333h106.667v-42.667h-106.667v42.667zM618.667 533.333h106.667v-42.667h-106.667v42.667zM618.667 405.333h106.667v-42.667h-106.667v42.667zM618.667 277.333h106.667v-42.667h-106.667v42.667zM618.667 149.333h106.667v-42.667h-106.667v42.667zM320-64h-85.333c-58.816 0-106.667 47.851-106.667 106.667v704.576c0 4.203 1.259 8.341 3.584 11.84l128 192c7.915 11.883 27.584 11.883 35.499 0l128-192c2.325-3.499 3.584-7.616 3.584-11.84v-704.576c0-58.816-47.851-106.667-106.667-106.667zM170.667 740.8v-698.133c0-35.285 28.715-64 64-64h85.333c35.285 0 64 28.715 64 64v698.133l-106.667 160-106.667-160zM405.333 107.243h-256c-11.797 0-21.333 9.557-21.333 21.333s9.536 21.333 21.333 21.333h256c11.797 0 21.333-9.557 21.333-21.333s-9.536-21.333-21.333-21.333zM405.333 192.576h-256c-11.797 0-21.333 9.557-21.333 21.333s9.536 21.333 21.333 21.333h256c11.797 0 21.333-9.557 21.333-21.333s-9.536-21.333-21.333-21.333zM234.667 192.576c-11.797 0-21.333 9.557-21.333 21.333v448c0 11.776 9.536 21.333 21.333 21.333s21.333-9.557 21.333-21.333v-448c0-11.755-9.536-21.333-21.333-21.333zM320 192.576c-11.797 0-21.333 9.557-21.333 21.333v448c0 11.776 9.536 21.333 21.333 21.333s21.333-9.557 21.333-21.333v-448c0-11.755-9.536-21.333-21.333-21.333zM213.333 853.909h128v-42.667h-128v42.667zM213.333 640.576c-47.061 0-85.333 38.272-85.333 85.333 0 11.776 9.536 21.333 21.333 21.333s21.333-9.557 21.333-21.333c0-23.531 19.136-42.667 42.667-42.667s42.667 19.136 42.667 42.667c0 11.776 9.536 21.333 21.333 21.333s21.333-9.557 21.333-21.333c0-47.061-38.272-85.333-85.333-85.333zM341.333 640.576c-47.061 0-85.333 38.272-85.333 85.333 0 11.776 9.536 21.333 21.333 21.333s21.333-9.557 21.333-21.333c0-23.531 19.136-42.667 42.667-42.667s42.667 19.136 42.667 42.667c0 11.776 9.536 21.333 21.333 21.333s21.333-9.557 21.333-21.333c0-47.061-38.272-85.333-85.333-85.333z" />
<glyph unicode="&#xe91e;" glyph-name="download" d="M725.333 277.333v-149.333h-426.667v149.333h-298.667v-341.333h1024v341.333h-298.667zM981.333-21.333h-938.667v256h213.333v-149.333h512v149.333h213.333v-256zM810.667 789.333h-192v-42.667h163.563l193.771-469.333h48zM405.333 789.333h-192l-213.333-512h48l193.771 469.333h163.563zM645.632 575.872l-90.965-92.48v476.608h-85.333v-475.925l-89.579 91.925-59.755-59.861 191.957-196.139 192.043 196.245z" />
<glyph unicode="&#xe91f;" glyph-name="edit" d="M448.533 362.667c-5.696 0-11.264 2.261-15.467 6.4-6.656 6.656-8.299 16.832-4.096 25.195l61.717 123.499c1.067 2.091 2.432 4.011 4.096 5.675l416.768 416.768c12.971 12.971 28.736 19.797 45.632 19.797 26.453 0 51.349-17.109 61.888-42.581 10.069-24.32 4.523-50.411-14.997-69.824l-416.661-416.789c-1.664-1.643-3.584-3.029-5.675-4.096l-123.499-61.76c-3.072-1.536-6.4-2.283-9.707-2.283zM528.213 495.083l-30.869-61.76 61.76 30.891 414.229 414.251c6.869 6.869 8.704 14.379 5.461 22.272-3.733 8.875-12.992 15.595-21.611 15.595-5.141 0-10.112-2.347-14.763-6.997l-414.208-414.251zM926.997 779.456c-5.589 0-11.157 2.155-15.445 6.4l-61.739 61.76c-8.533 8.533-8.533 22.357 0 30.891 8.619 8.512 22.336 8.512 30.848 0l61.739-61.76c8.533-8.533 8.533-22.357 0-30.891-4.224-4.288-9.813-6.4-15.403-6.4zM768 549.568v-570.901h-725.333v789.333h149.333v149.333h576v-58.795l42.667 42.667v58.795h-677.333l-133.333-133.333v-890.667h810.667v656.235l-42.667-42.667zM149.333 917.333v-106.667h-106.667l106.667 106.667z" />
<glyph unicode="&#xe920;" glyph-name="email" d="M938.667 106.667h-853.333c-47.061 0-85.333 38.272-85.333 85.333v512c0 47.061 38.272 85.333 85.333 85.333h853.333c47.061 0 85.333-38.272 85.333-85.333v-512c0-47.061-38.272-85.333-85.333-85.333zM85.333 746.667c-23.531 0-42.667-19.136-42.667-42.667v-512c0-23.552 19.136-42.667 42.667-42.667h853.333c23.552 0 42.667 19.115 42.667 42.667v512c0 23.531-19.115 42.667-42.667 42.667h-853.333zM512 358.592l-374.251 242.155c-9.899 6.421-12.736 19.605-6.336 29.504s19.605 12.715 29.504 6.336l351.083-227.179 351.083 227.179c9.899 6.379 23.104 3.563 29.504-6.336 6.421-9.899 3.563-23.083-6.336-29.504l-374.251-242.155zM128.021 256c-6.891 0-13.675 3.328-17.771 9.493-6.549 9.813-3.904 23.040 5.909 29.589l192 128c9.813 6.549 23.061 3.925 29.589-5.909 6.549-9.813 3.904-23.040-5.909-29.589l-192-128c-3.648-2.411-7.765-3.584-11.819-3.584zM895.979 256c-4.053 0-8.171 1.173-11.819 3.584l-192 128c-9.835 6.549-12.459 19.776-5.909 29.589 6.549 9.835 19.755 12.459 29.589 5.909l192-128c9.835-6.549 12.459-19.776 5.909-29.589-4.075-6.165-10.88-9.493-17.771-9.493z" />
<glyph unicode="&#xe921;" glyph-name="email_resend" d="M512 529.259l-374.251 242.155c-9.899 6.421-12.736 19.605-6.336 29.504s19.605 12.715 29.504 6.336l351.083-227.179 351.083 227.179c9.899 6.379 23.104 3.563 29.504-6.336 6.421-9.899 3.563-23.083-6.336-29.504l-374.251-242.155zM128.021 426.667c-6.891 0-13.675 3.328-17.771 9.493-6.549 9.813-3.904 23.040 5.909 29.589l192 128c9.813 6.549 23.061 3.925 29.589-5.909 6.549-9.813 3.904-23.040-5.909-29.589l-192-128c-3.648-2.411-7.765-3.584-11.819-3.584zM895.979 426.667c-4.053 0-8.171 1.173-11.819 3.584l-192 128c-9.835 6.549-12.459 19.776-5.909 29.589 6.549 9.835 19.755 12.459 29.589 5.909l192-128c9.835-6.549 12.459-19.776 5.909-29.589-4.075-6.165-10.88-9.493-17.771-9.493zM512-64c-141.163 0-256 114.837-256 256s114.837 256 256 256 256-114.837 256-256-114.837-256-256-256zM512 405.333c-117.632 0-213.333-95.701-213.333-213.333s95.701-213.333 213.333-213.333 213.333 95.701 213.333 213.333-95.701 213.333-213.333 213.333zM938.667 960h-853.333c-47.061 0-85.333-38.272-85.333-85.333v-512c0-47.061 38.272-85.333 85.333-85.333h100.267c5.291 14.891 11.861 29.163 19.691 42.667h-119.957c-23.531 0-42.667 19.115-42.667 42.667v512c0 23.531 19.136 42.667 42.667 42.667h853.333c23.552 0 42.667-19.136 42.667-42.667v-512c0-23.552-19.115-42.667-42.667-42.667h-119.957c7.829-13.504 14.4-27.776 19.691-42.667h100.267c47.061 0 85.333 38.272 85.333 85.333v512c0 47.061-38.272 85.333-85.333 85.333zM448 96l34.155-32 136.512 128-136.512 128-34.155-32 102.4-96z" />
<glyph unicode="&#xe922;" glyph-name="envelope" d="M721.152 725.333h-418.709c-32.363 0-62.592 14.443-82.923 39.616l-129.429 160.299c-5.163 6.4-6.208 15.189-2.667 22.613s11.029 12.139 19.243 12.139h810.283c8.192 0 15.68-4.736 19.221-12.139s2.496-16.213-2.667-22.613l-129.451-160.299c-20.331-25.173-50.539-39.616-82.901-39.616zM151.275 917.333l101.397-125.547c12.224-15.125 30.336-23.787 49.771-23.787h418.709c19.413 0 37.568 8.661 49.771 23.787l101.397 125.547h-721.045zM917.355-64c-0.128 0.021-42.965 0.021-43.093 0h-767.595c-8 0-15.296 4.459-18.965 11.563-3.648 7.125-3.029 15.637 1.6 22.165l106.624 149.333c3.989 5.611 10.453 8.939 17.344 8.939h597.035c6.891 0 13.355-3.328 17.365-8.939l104.491-146.411c4.053-3.883 6.507-9.323 6.507-15.317 0-11.797-9.536-21.333-21.312-21.333zM148.075-21.333h727.424l-76.181 106.667h-575.061l-76.181-106.667zM490.475 768h42.667v-682.667h-42.667v682.667zM85.333 960h42.645v-1024h-42.645v1024zM895.595 960h42.645v-1024h-42.645v1024z" />
<glyph unicode="&#xe923;" glyph-name="excel" d="M1024-64h-1024v1024h1024v-1024zM85.333 21.333h853.333v853.333h-853.333zM853.333 149.333h-200.619l-136.768 196.053-143.872-196.053h-201.408l249.963 318.763-201.899 278.571h203.563l94.443-151.467 100.843 151.467h207.040l-211.605-278.571 240.32-318.763z" />
<glyph unicode="&#xe924;" glyph-name="export_pdf" d="M480.149 574.144c14.421 50.88 22.955 97.472 26.24 128.064l1.557 13.845c1.536 13.461 3.008 26.176 1.835 29.419-0.085 0-0.491 0.277-1.365 0.704l-0.363-0.619c-4.224 2.581-10.624 6.464-13.632 7.36-0.341 0.107-0.533 0.171-0.853 0.171-0.405 0-0.981-0.107-2.219-0.341l-4.501-0.661c-2.176-0.277-3.755-0.448-6.251-1.344-2.645-0.939-7.723-3.307-11.093-8.085-3.477-5.077-6.251-14.741-8.149-28.523-2.389-17.045-2.709-35.52-0.939-53.44 1.856-19.179 6.571-42.048 13.973-67.904 1.728-5.952 3.605-12.16 5.76-18.645zM484.651 492.48c-0.491-1.344-1.024-2.667-1.536-4.011-24.896-64.064-57.579-123.264-85.013-167.787 8.981 2.837 18.069 5.568 27.157 8.171 46.379 13.248 81.643 20.139 109.995 25.152 17.387 3.115 32.619 5.568 46.549 7.467-11.669 13.163-22.827 26.325-32.981 38.976-25.707 31.979-47.723 63.552-64.171 92.032zM209.771 193.792c-16.939-16.256-21.205-27.371-22.997-35.221-1.813-7.787-1.237-13.035-0.363-15.616 0 0 0 0 0.021 0 1.024 0 2.709 0.107 5.291 0.512 14.656 2.389 30.805 11.051 49.344 26.453 17.579 14.656 45.227 42.112 81.579 91.797-9.429-3.947-18.304-7.872-26.475-11.776-47.467-22.528-74.496-44.843-86.4-56.149zM0 960v-1024h1024v1024h-1024zM862.891 236.523c-6.571-13.696-19.499-23.957-37.376-29.696-17.003-5.184-33.813-5.205-51.627-0.149-17.216 5.099-37.611 15.765-60.779 31.765-23.445 16.299-45.547 34.944-71.744 60.501-11.499 11.179-23.232 23.147-34.795 35.413-18.901-1.984-39.915-5.099-66.069-9.792-27.669-4.864-61.973-11.563-107.008-24.448-20.8-5.973-41.472-12.565-61.099-19.435-3.051-4.544-5.909-8.747-8.555-12.587-36.821-53.419-72.661-95.339-103.659-121.173-22.784-18.944-43.605-29.717-63.637-32.96-2.112-0.363-5.653-0.939-9.792-0.939-8.533 0-19.605 2.453-26.112 14.507-5.291 9.685-6.357 23.104-2.944 37.739 3.989 17.387 13.995 33.344 31.467 50.112 22.805 21.696 56.256 43.52 94.229 61.525 19.947 9.472 43.819 19.243 69.653 28.587 29.248 44.395 71.829 115.477 102.251 193.792 3.776 9.771 7.339 19.584 10.688 29.376-9.813 21.675-15.723 40.107-20.267 55.893-7.915 27.605-12.949 52.224-14.997 73.216-1.984 20.224-1.6 41.152 1.088 60.459 2.603 18.88 6.805 32.043 13.184 41.429 7.808 11.093 18.219 16.512 25.579 19.179 5.675 2.027 9.728 2.517 12.672 2.88l4.203-14.507-1.365 14.912c3.477 0.619 9.28 1.664 16.917-0.597 5.205-1.536 10.645-4.48 16.896-8.213l0.192 0.405c23.36-10.773 21.312-28.651 17.579-61.077l-1.536-13.653c-4.181-38.805-16.427-102.379-37.995-168.427 2.069-4.203 4.331-8.533 6.741-13.035 16.064-29.632 39.317-63.659 67.264-98.389 13.739-17.109 29.76-35.605 46.379-53.696 25.749 1.813 51.179 1.771 75.755-0.043 24.533-2.069 48.896-5.909 70.613-11.136 24.341-5.739 41.92-12.437 56.981-21.739 18.603-11.456 32.832-26.581 40.064-42.581 8.043-17.365 8.427-37.888 0.96-53.419zM806.165 307.115c-12.203 7.552-27.093 13.099-48.235 18.091-20.331 4.907-43.136 8.512-66.048 10.432-15.061 1.109-30.571 1.451-46.229 1.195 5.568-5.696 11.093-11.179 16.533-16.469 24.981-24.384 45.931-42.069 67.904-57.344 20.544-14.187 38.101-23.509 52.117-27.669 12.096-3.435 23.083-3.477 34.347-0.043 9.813 3.157 16.405 7.936 19.392 14.123 3.648 7.595 3.157 18.624-1.216 28.075-4.779 10.624-15.168 21.355-28.565 29.611z" />
<glyph unicode="&#xe925;" glyph-name="eye" d="M512 106.667c-282.304 0-512 341.333-512 341.333s229.696 341.333 512 341.333c282.283 0 512-341.333 512-341.333s-229.717-341.333-512-341.333zM512 746.155c-258.795 0-458.667-298.155-458.667-298.155s199.872-298.176 458.667-298.176 458.667 298.176 458.667 298.176-199.872 298.155-458.667 298.155zM512 234.667c-117.632 0-213.333 95.701-213.333 213.333s95.701 213.333 213.333 213.333c117.632 0 213.333-95.701 213.333-213.333s-95.701-213.333-213.333-213.333zM512 618.667c-94.101 0-170.667-76.565-170.667-170.667s76.565-170.667 170.667-170.667 170.667 76.565 170.667 170.667-76.565 170.667-170.667 170.667zM512 362.667c-47.061 0-85.333 38.251-85.333 85.333 0 47.040 38.272 85.333 85.333 85.333 47.083 0 85.333-38.293 85.333-85.333 0-47.083-38.251-85.333-85.333-85.333z" />
<glyph unicode="&#xe926;" glyph-name="eye_dropper" d="M746.667 576h-469.333c-11.797 0-21.333 9.557-21.333 21.333s9.536 21.333 21.333 21.333h469.333c11.797 0 21.333-9.557 21.333-21.333s-9.536-21.333-21.333-21.333zM448 448h-85.333c-11.797 0-21.333 9.557-21.333 21.333s9.536 21.333 21.333 21.333h85.333c11.797 0 21.333-9.557 21.333-21.333s-9.536-21.333-21.333-21.333zM448 362.667h-85.333c-11.797 0-21.333 9.557-21.333 21.333s9.536 21.333 21.333 21.333h85.333c11.797 0 21.333-9.557 21.333-21.333s-9.536-21.333-21.333-21.333zM448 277.333h-85.333c-11.797 0-21.333 9.557-21.333 21.333s9.536 21.333 21.333 21.333h85.333c11.797 0 21.333-9.557 21.333-21.333s-9.536-21.333-21.333-21.333zM554.667-64h-85.333c-11.797 0-21.333 9.557-21.333 21.333v78.016c-64.405 29.056-106.667 98.581-106.667 177.984v554.667c0 105.856 76.565 192 170.667 192s170.667-86.144 170.667-192v-554.667c0-79.424-42.261-148.928-106.667-177.984v-78.016c0-11.776-9.536-21.333-21.333-21.333zM490.667-21.333h42.667v71.168c0 9.131 5.803 17.259 14.464 20.203 54.293 18.475 92.203 77.397 92.203 143.296v554.667c0 82.347-57.408 149.333-128 149.333s-128-66.987-128-149.333v-554.667c0-65.899 37.909-124.821 92.203-143.296 8.661-2.944 14.464-11.072 14.464-20.203v-71.168z" />
<glyph unicode="&#xe927;" glyph-name="finger_touch" d="M355.051 830.784c0 0 12.203-17.92-10.304-28.288-22.528-10.347-28.629 10.389-28.629 10.389l-54.891 116.011c0 0-11.584 18.219 10.347 28.288 21.888 10.069 28.608-10.389 28.608-10.389l54.869-116.011zM706.816-64c-35.819 0-73.792 5.184-94.165 8l-9.579 1.259c-40.363 5.056-58.304 52.885-69.056 81.451-2.048 5.419-4.075 10.965-5.589 14.101-7.381 6.464-17.173 20.096-39.573 30.165-33.365 14.933-46.677 30.443-65.515 45.333-41.472 32.853-103.851 151.637-103.317 199.381 0.512 46.421 17.195 126.571 36.971 143.296 11.797 9.984 36.053 14.101 57.941 15.701-3.947 13.248-9.28 28.971-15.125 40.213-7.211 13.867-17.131 29.717-26.731 45.099-16.192 25.877-26.283 42.411-29.909 55.040-9.28 32.427-9.664 58.944-1.088 81.088 10.709 27.733 28.032 35.925 41.941 42.496 29.76 14.037 44.608 7.275 63.616-1.813l6.037-2.859c14.080-6.571 45.077-47.744 92.203-122.475 11.541 8 27.307 15.552 45.824 15.552 18.432 0 31.637-7.253 40.619-16.213 12.523 5.845 31.893 9.515 51.499 4.779 27.179-6.571 44.181-29.355 53.483-46.741 15.189 4.949 36.8 7.104 52.736 0.384 50.581-21.461 82.283-140.203 90.752-176.021 7.765-32.619 9.408-118.144 10.496-202.965 0.299-22.229 0.469-41.429 0.939-47.36 0.491-7.083 5.12-20.672 9.579-33.771 7.936-23.403 16.96-49.941 15.339-72.597-2.432-35.371-8.576-51.392-38.037-70.784-20.373-13.461-62.997-21.781-147.179-28.757-8.128-0.683-16.576-0.981-25.109-0.981zM424.725 427.115c-5.589 5.333-35.925 2.389-42.069-1.472-9.92-9.472-21.077-76.139-21.44-110.379-0.405-36.032 57.6-141.632 87.147-165.013 14.827-11.733 27.243-26.795 56.853-40.085 51.264-22.997 50.752-33.003 58.389-46.997 3.029-5.419 5.739-12.608 8.832-20.928 6.933-18.347 19.733-52.587 35.541-54.549l10.112-1.344c23.765-3.264 72.171-9.963 110.571-6.784 71.829 5.909 115.072 13.419 128.32 22.165 15.787 10.411 17.344 12.117 19.115 37.909 0.96 13.824-6.827 36.885-13.12 55.403-5.824 17.152-10.859 31.936-11.819 44.651-0.533 7.253-0.747 25.216-1.088 50.091-0.683 56.875-1.984 162.667-9.237 193.301-17.259 72.704-47.851 136.832-66.411 146.709-31.765 16.96-59.691-19.648-59.691-19.648s-8.491 64.171-40.32 63.979c-42.027-0.277-49.301-30.485-49.301-30.485s-14.869 40.448-36.587 40.512c-27.221 0.085-47.979-35.179-47.979-35.179l-15.893 21.333c-34.112 55.104-78.443 117.333-89.451 125.632l-4.885 2.197c-14.869 7.104-16.149 7.936-27.691 2.453-13.333-6.293-17.771-8.405-22.336-20.245-4.971-12.885-4.203-30.229 2.325-53.099 2.133-7.381 14.784-27.691 25.003-44.011 10.027-16.043 20.395-32.64 28.395-48 14.635-28.032 25.301-74.027 38.059-110.123 0 0 7.68-19.733 13.717-47.296 6.016-27.584 9.856-91.136 9.856-91.136l-21.035 5.333-28.331 30.677c0 0 4.331 45.781 1.771 60.032-2.603 14.208-19.776 39.061-25.323 44.395zM237.739 636.757c0 0 18.197 12.011 28.672-10.176 10.496-22.229-10.539-28.245-10.539-28.245l-117.675-54.101c0 0-18.517-11.413-28.715 10.219-10.219 21.589 10.517 28.203 10.517 28.203l117.739 54.101zM648.96 828.757c0 0 18.197 12.011 28.672-10.176 10.496-22.229-10.517-28.245-10.517-28.245l-117.675-54.101c0 0-18.453-11.413-28.693 10.197-10.219 21.568 10.517 28.203 10.517 28.203l117.696 54.123zM477.867 945.237c0 0 4.267 21.184 27.605 12.821 23.36-8.405 12.8-27.307 12.8-27.307l-44.416-120.299c0 0-4.885-20.949-27.627-12.8-22.699 8.128-12.779 27.285-12.779 27.285l44.416 120.299zM121.643 768.469c0 0-21.483 4.203-12.992 27.2 8.512 23.040 27.691 12.651 27.691 12.651l122.027-43.776c0 0 21.269-4.821 12.971-27.2-8.235-22.379-27.691-12.608-27.691-12.608l-122.005 43.733z" />
<glyph unicode="&#xe928;" glyph-name="food_barbecue" d="M661.333 448c-11.776 0-21.333 9.536-21.333 21.333v426.667c0 11.797 9.557 21.333 21.333 21.333 129.387 0 234.667-105.28 234.667-234.667s-105.28-234.667-234.667-234.667zM682.667 873.472v-381.632c95.872 10.645 170.667 92.139 170.667 190.805s-74.795 180.181-170.667 190.827zM661.333 874.667c-11.776 0-21.333 9.536-21.333 21.333v42.667c0 11.797 9.557 21.333 21.333 21.333s21.333-9.536 21.333-21.333v-42.667c0-11.797-9.557-21.333-21.333-21.333zM448 362.667h-85.333c-11.776 0-21.333 9.536-21.333 21.333s9.557 21.333 21.333 21.333h85.333c11.776 0 21.333-9.536 21.333-21.333s-9.557-21.333-21.333-21.333zM576 533.333h-384c-11.776 0-21.333 9.536-21.333 21.333s9.557 21.333 21.333 21.333h384c11.776 0 21.333-9.536 21.333-21.333s-9.557-21.333-21.333-21.333zM256.021-64c-1.067 0-2.155 0.085-3.243 0.256-11.648 1.771-19.648 12.672-17.877 24.32l42.667 279.232c1.792 11.627 12.715 19.541 24.32 17.856 11.648-1.771 19.648-12.672 17.877-24.32l-42.667-279.232c-1.621-10.56-10.709-18.112-21.077-18.112zM533.333-64c-47.061 0-85.333 38.272-85.333 85.333s38.272 85.333 85.333 85.333 85.333-38.272 85.333-85.333-38.272-85.333-85.333-85.333zM533.333 64c-23.531 0-42.667-19.136-42.667-42.667s19.136-42.667 42.667-42.667 42.667 19.136 42.667 42.667-19.136 42.667-42.667 42.667zM518.357 62.229c-11.371 0-20.821 8.981-21.312 20.437l-6.379 153.003c-0.491 11.776 8.661 21.739 20.437 22.208 11.968 0.789 21.696-8.661 22.208-20.416l6.379-153.003c0.491-11.776-8.661-21.739-20.437-22.208-0.299-0.021-0.597-0.021-0.896-0.021zM282.261 149.333h234.411v-42.667h-234.411v42.667zM405.333 192c-152.917 0-277.333 124.416-277.333 277.333 0 11.797 9.557 21.333 21.333 21.333h512c11.776 0 21.333-9.536 21.333-21.333 0-152.917-124.416-277.333-277.333-277.333zM171.627 448c10.816-119.445 111.488-213.333 233.707-213.333s222.891 93.888 233.707 213.333h-467.413z" />
<glyph unicode="&#xe929;" glyph-name="food_chef_hat" d="M768-64h-512c-11.136 0-20.416 8.576-21.269 19.691l-41.237 536.128c-84.8 9.856-150.827 82.112-150.827 169.515 0 94.272 78.464 173.888 171.349 173.888 19.413 0 38.464-3.776 56.235-11.093 29.952 82.347 123.115 135.872 241.749 135.872 111.445 0 189.397-45.056 237.653-137.6 18.923 8.448 39.424 12.843 60.331 12.843 92.885-0.021 171.349-79.637 171.349-173.909 0-87.403-66.027-159.659-150.827-169.515l-41.237-536.128c-0.853-11.115-10.133-19.691-21.269-19.691zM275.755-21.333h472.469l41.152 534.976c0.875 11.115 10.155 19.691 21.291 19.691 70.592 0 128 57.408 128 128 0 77.333-67.819 131.221-128.683 131.221-20.949 0-40.512-5.845-58.112-17.429-5.227-3.435-11.755-4.416-17.749-2.624-6.016 1.771-10.944 6.080-13.483 11.84-40.149 90.731-106.432 132.992-208.64 132.992-110.016 0-193.259-51.52-207.147-128.192-1.28-7.040-5.995-12.971-12.587-15.787-6.571-2.859-14.144-2.176-20.117 1.771-17.6 11.584-37.163 17.429-58.112 17.429-60.885 0-128.704-53.888-128.704-131.221 0-70.592 57.408-128 128-128 11.136 0 20.416-8.576 21.269-19.691l41.152-534.976zM781.333 106.667h-538.667c-11.776 0-21.333 9.536-21.333 21.333s9.557 21.333 21.333 21.333h538.667c11.776 0 21.333-9.536 21.333-21.333s-9.557-21.333-21.333-21.333zM405.333 106.667c-11.776 0-21.333 9.536-21.333 21.333v170.667c0 11.797 9.557 21.333 21.333 21.333s21.333-9.536 21.333-21.333v-170.667c0-11.797-9.557-21.333-21.333-21.333zM512 106.667c-11.776 0-21.333 9.536-21.333 21.333v213.333c0 11.797 9.557 21.333 21.333 21.333s21.333-9.536 21.333-21.333v-213.333c0-11.797-9.557-21.333-21.333-21.333zM618.667 106.667c-11.776 0-21.333 9.536-21.333 21.333v170.667c0 11.797 9.557 21.333 21.333 21.333s21.333-9.536 21.333-21.333v-170.667c0-11.797-9.557-21.333-21.333-21.333z" />
<glyph unicode="&#xe92a;" glyph-name="food_coffee" d="M768-64h-512c-11.264 0-20.587 8.747-21.291 20.011l-42.667 682.667c-0.363 5.867 1.707 11.648 5.739 15.936s9.664 6.72 15.552 6.72h597.333c5.867 0 11.52-2.432 15.552-6.72s6.123-10.069 5.76-15.936l-42.667-682.667c-0.725-11.264-10.069-20.011-21.312-20.011zM276.032-21.333h471.936l40 640h-551.936l40-640zM853.333 618.667h-682.667c-11.776 0-21.333 9.536-21.333 21.333v170.667c0 11.797 9.557 21.333 21.333 21.333h682.667c11.797 0 21.333-9.536 21.333-21.333v-170.667c0-11.797-9.536-21.333-21.333-21.333zM192 661.333h640v128h-640v-128zM811.093 789.333c-0.128 0.021-0.277 0-0.427 0h-597.333c-6.848 0-13.291 3.285-17.301 8.853s-5.099 12.736-2.944 19.221l42.667 128c2.923 8.725 11.051 14.592 20.245 14.592h512c9.216 0 17.344-5.867 20.245-14.592l41.365-124.181c1.813-3.115 2.816-6.72 2.816-10.56 0-11.797-9.557-21.333-21.333-21.333zM242.923 832h538.155l-28.459 85.333h-481.237l-28.459-85.333zM800 448h-576c-11.776 0-21.333 9.536-21.333 21.333s9.557 21.333 21.333 21.333h576c11.797 0 21.333-9.536 21.333-21.333s-9.536-21.333-21.333-21.333zM240 234.667h544v-42.667h-544v42.667zM576 320h-128c-11.776 0-21.333 9.536-21.333 21.333s9.557 21.333 21.333 21.333h128c11.797 0 21.333-9.536 21.333-21.333s-9.536-21.333-21.333-21.333z" />
<glyph unicode="&#xe92b;" glyph-name="food_fork_knife" d="M704-64c-11.797 0-21.333 9.536-21.333 21.333v981.333c0 11.797 9.536 21.333 21.333 21.333s21.333-9.536 21.333-21.333v-981.333c0-11.797-9.536-21.333-21.333-21.333zM832 298.667h-128c-11.797 0-21.333 9.536-21.333 21.333s9.536 21.333 21.333 21.333h106.581c-2.837 358.443-76.48 568.747-106.965 576.043-11.797 0-21.141 9.515-21.141 21.312 0 11.776 9.728 21.312 21.525 21.312 89.344 0 149.333-330.923 149.333-640 0-11.797-9.536-21.333-21.333-21.333zM320 576c-82.325 0-149.333 67.008-149.333 149.333v213.333c0 11.797 9.536 21.333 21.333 21.333s21.333-9.536 21.333-21.333v-213.333c0-58.816 47.851-106.667 106.667-106.667s106.667 47.851 106.667 106.667v213.333c0 11.797 9.536 21.333 21.333 21.333s21.333-9.536 21.333-21.333v-213.333c0-82.325-67.008-149.333-149.333-149.333zM320-64c-11.797 0-21.333 9.536-21.333 21.333v981.333c0 11.797 9.536 21.333 21.333 21.333s21.333-9.536 21.333-21.333v-981.333c0-11.797-9.536-21.333-21.333-21.333z" />
<glyph unicode="&#xe92c;" glyph-name="food_hotdog" d="M177.771 92.501c-5.483 0-11.008 2.133-15.189 6.336-25.045 25.131-25.045 65.941 0 91.051 25.195 25.088 66.048 25.088 91.115 0 8.384-8.384 21.995-8.363 30.379 0 8.363 8.384 8.363 21.995-0.021 30.336-12.16 12.16-18.859 28.331-18.859 45.589 0 17.195 6.699 33.344 18.88 45.504 24.256 24.277 66.709 24.277 91.051-0.043 8.085-8.085 22.229-8.128 30.336 0 8.384 8.405 8.384 21.995 0 30.357-25.067 25.109-25.067 65.963 0 91.072 24.299 24.299 66.731 24.32 91.093 0.021 4.096-4.053 9.472-6.293 15.189-6.293v0c5.739 0 11.115 2.219 15.168 6.293s6.293 9.408 6.293 15.168c0 5.739-2.219 11.115-6.293 15.168-12.16 12.139-18.88 28.331-18.88 45.568 0 17.173 6.72 33.344 18.88 45.461 12.139 12.139 28.331 18.859 45.525 18.859 0.021 0 0.021 0 0.043 0 17.195-0.021 33.344-6.72 45.525-18.923 8.363-8.32 21.973-8.32 30.379 0.043 8.363 8.363 8.363 21.973 0 30.379-12.16 12.117-18.88 28.288-18.88 45.504 0 17.195 6.699 33.365 18.901 45.525 24.299 24.32 66.731 24.341 91.051 0.021 8.405-8.427 21.995-8.363 30.4-0.021 4.032 4.053 6.293 9.429 6.293 15.168s-2.24 11.093-6.293 15.125c-25.131 25.152-25.131 65.984-0.043 91.093 25.195 25.067 66.027 25.067 91.115-0.021 8.384-8.427 8.384-21.973 0-30.357-8.427-8.363-21.995-8.341-30.357 0.021-8.405 8.405-21.995 8.405-30.4 0-8.363-8.341-8.363-21.973 0.043-30.379 12.096-12.117 18.816-28.245 18.859-45.461 0-17.195-6.699-33.365-18.859-45.547-24.341-24.32-66.752-24.32-91.072 0-8.107 8.064-22.251 8.149-30.357 0-4.053-4.053-6.293-9.451-6.293-15.168 0-5.76 2.219-11.115 6.251-15.147 25.131-25.152 25.131-65.984 0-91.072-25.088-25.109-65.963-25.109-91.072-0.043-4.053 4.075-9.429 6.336-15.189 6.336 0 0 0 0-0.021 0-5.717 0-11.115-2.24-15.189-6.315-4.053-4.032-6.293-9.408-6.293-15.125 0-5.76 2.219-11.136 6.293-15.168 12.139-12.16 18.859-28.352 18.859-45.547 0-17.216-6.699-33.387-18.859-45.547-12.16-12.139-28.309-18.859-45.504-18.859 0 0 0 0-0.021 0-17.195 0-33.365 6.699-45.525 18.88-8.085 8.085-22.251 8.128-30.357 0-8.363-8.363-8.363-22.016 0-30.379 12.139-12.117 18.837-28.288 18.837-45.504s-6.699-33.344-18.859-45.504c-24.299-24.341-66.731-24.341-91.051 0-8.085 8.085-22.229 8.128-30.357 0-4.075-4.053-6.315-9.429-6.315-15.168 0-5.76 2.24-11.136 6.293-15.189 25.088-25.109 25.088-65.963 0.021-91.093-25.131-25.003-65.984-25.045-91.093 0-8.405 8.448-21.995 8.427-30.421 0-8.32-8.341-8.32-21.952 0.043-30.379 8.384-8.384 8.363-21.952-0.043-30.357-4.139-4.139-9.643-6.272-15.147-6.272zM208.149-5.867c-40.149 0-77.867 15.616-106.24 44.011-58.581 58.56-58.581 153.877 0 212.437l607.104 606.955c28.373 28.373 66.112 43.989 106.261 43.989 40.128 0 77.845-15.616 106.24-43.989 58.56-58.56 58.56-153.856 0-212.437l-607.104-606.976c-28.395-28.373-66.112-43.989-106.261-43.989zM815.296 858.624c-28.672 0-55.616-11.157-75.925-31.445l-607.125-606.976c-41.835-41.813-41.835-109.867 0-151.723 20.267-20.245 47.232-31.424 75.904-31.424s55.616 11.157 75.904 31.424l607.125 606.976c41.835 41.813 41.835 109.909 0 151.723-20.288 20.288-47.189 31.445-75.883 31.445zM377.259-64c-0.384 0-0.768 0-1.152 0-54.272 0.363-106.069 24.235-149.781 69.056l30.763 29.973c35.499-36.459 76.736-55.829 119.275-56.107 38.763-0.533 76.757 15.744 104.981 44.011l455.339 455.211c48.085 48.064 73.707 135.957-12.416 225.344l30.912 29.76c100.779-104.597 78.571-218.731 11.84-285.44l-455.296-455.211c-36.032-36.011-84.971-56.597-134.464-56.597zM83.712 155.968c-5.589 0-11.136 2.197-15.36 6.485-101.056 103.317-77.035 220.352-12.011 285.397l455.403 455.232c79.595 79.552 186.432 75.541 285.739-10.816 8.981-7.765 9.899-21.333 2.155-30.293-7.787-8.939-21.355-9.835-30.293-2.112-81.621 70.955-164.459 75.627-227.243 12.885l-455.381-455.275c-52.288-52.267-68.757-142.123 12.331-225.003 8.277-8.491 8.128-22.101-0.363-30.357-4.16-4.096-9.557-6.144-14.976-6.144z" />
<glyph unicode="&#xe92d;" glyph-name="food_ice_cream" d="M704 192h-384c-11.797 0-21.333 9.536-21.333 21.333v533.333c0 117.632 95.701 213.333 213.333 213.333s213.333-95.701 213.333-213.333v-533.333c0-11.797-9.536-21.333-21.333-21.333zM341.333 234.667h341.333v512c0 94.101-76.565 170.667-170.667 170.667s-170.667-76.565-170.667-170.667v-512zM512-64c-11.797 0-21.333 9.536-21.333 21.333v256c0 11.797 9.536 21.333 21.333 21.333s21.333-9.536 21.333-21.333v-256c0-11.797-9.536-21.333-21.333-21.333zM618.667 426.667c-35.285 0-64 28.715-64 64v170.667c0 11.797 9.536 21.333 21.333 21.333s21.333-9.536 21.333-21.333v-170.667c0-11.776 9.557-21.333 21.333-21.333 11.797 0 21.333-9.536 21.333-21.333s-9.536-21.333-21.333-21.333zM448 597.333c-35.285 0-64 28.715-64 64v85.333c0 11.797 9.536 21.333 21.333 21.333s21.333-9.536 21.333-21.333v-85.333c0-11.776 9.557-21.333 21.333-21.333s21.333 9.557 21.333 21.333c0 11.797 9.536 21.333 21.333 21.333s21.333-9.536 21.333-21.333c0-35.285-28.715-64-64-64zM576 640c-11.797 0-21.333 9.536-21.333 21.333 0 11.776-9.557 21.333-21.333 21.333s-21.333-9.557-21.333-21.333c0-11.797-9.536-21.333-21.333-21.333s-21.333 9.536-21.333 21.333c0 35.285 28.715 64 64 64s64-28.715 64-64c0-11.797-9.536-21.333-21.333-21.333z" />
<glyph unicode="&#xe92e;" glyph-name="fork_lift" d="M874.667-64c-58.816 0-106.667 47.851-106.667 106.667s47.851 106.667 106.667 106.667 106.667-47.851 106.667-106.667-47.851-106.667-106.667-106.667zM874.667 106.667c-35.285 0-64-28.715-64-64s28.715-64 64-64 64 28.715 64 64-28.715 64-64 64zM277.333-64h-85.333c-11.797 0-21.333 9.536-21.333 21.333v938.667c0 35.285 28.715 64 64 64s64-28.715 64-64v-938.667c0-11.797-9.536-21.333-21.333-21.333zM213.333-21.333h42.667v917.333c0 11.776-9.557 21.333-21.333 21.333s-21.333-9.557-21.333-21.333v-917.333zM576-64c-82.325 0-149.333 67.008-149.333 149.333s67.008 149.333 149.333 149.333c82.325 0 149.333-67.008 149.333-149.333s-67.008-149.333-149.333-149.333zM576 192c-58.816 0-106.667-47.851-106.667-106.667s47.851-106.667 106.667-106.667 106.667 47.851 106.667 106.667-47.851 106.667-106.667 106.667zM768.021 298.667c-1.707 0-3.456 0.213-5.184 0.64-11.413 2.859-18.368 14.443-15.552 25.856l42.667 170.667c2.88 11.456 14.443 18.453 25.877 15.531 11.413-2.859 18.368-14.443 15.552-25.856l-42.667-170.667c-2.475-9.707-11.136-16.171-20.693-16.171zM576 341.333c-5.461 0-10.923 2.091-15.083 6.251l-42.667 42.667c-8.341 8.341-8.341 21.824 0 30.165s21.824 8.341 30.165 0l42.667-42.667c8.341-8.341 8.341-21.824 0-30.165-4.16-4.16-9.621-6.251-15.083-6.251zM362.667 170.667c-5.461 0-10.923 2.091-15.083 6.251-8.341 8.341-8.341 21.824 0 30.165l192 192c8.341 8.341 21.824 8.341 30.165 0s8.341-21.824 0-30.165l-192-192c-4.16-4.16-9.621-6.251-15.083-6.251zM576 192c-5.461 0-10.923 2.091-15.083 6.251-8.341 8.341-8.341 21.824 0 30.165l106.667 106.667c3.989 4.011 9.408 6.251 15.083 6.251h234.667c11.797 0 21.333-9.536 21.333-21.333s-9.536-21.333-21.333-21.333h-225.835l-100.416-100.416c-4.16-4.16-9.621-6.251-15.083-6.251zM277.333-64h-256c-11.797 0-21.333 9.536-21.333 21.333s9.536 21.333 21.333 21.333h256c11.797 0 21.333-9.536 21.333-21.333s-9.536-21.333-21.333-21.333zM192 149.333h-128c-11.797 0-21.333 9.536-21.333 21.333s9.536 21.333 21.333 21.333h128c11.797 0 21.333-9.536 21.333-21.333s-9.536-21.333-21.333-21.333zM686.869 42.667h105.173v-42.667h-105.173v42.667zM1002.667 0h-45.376v42.667h24.043v202.667l-76.8 57.6c-5.376 4.032-8.533 10.368-8.533 17.067v234.667c0 35.285-28.715 64-64 64h-85.333c-199.979 0-362.667-162.688-362.667-362.667v-213.333h81.131v-42.667h-102.464c-11.797 0-21.333 9.536-21.333 21.333v234.667c0 223.509 181.824 405.333 405.333 405.333h85.333c58.816 0 106.667-47.851 106.667-106.667v-224l76.8-57.6c5.376-4.011 8.533-10.347 8.533-17.067v-234.667c0-11.797-9.536-21.333-21.333-21.333z" />
<glyph unicode="&#xe92f;" glyph-name="gift" d="M1024 789.333h-1024v-213.333h85.333v-640h853.333v640h85.333v213.333zM896-21.333h-768v597.333h768v-597.333zM981.333 618.667h-938.667v128h938.667v-128zM554.667 597.333v-640h-85.333v640h106.667zM597.333 618.667h-170.667v-682.667h170.667v682.667zM576 768v-170.667h-128v170.667h149.333zM618.667 789.333h-213.333v-213.333h213.333v213.333zM509.461 768l-2.325 0.533c-21.013 4.757-205.931 46.869-228.757 58.347-22.293 11.264-26.411 46.635-18.987 74.197 9.941 36.864 37.611 58.837 74.027 58.837 66.837 0 151.253-110.571 177.067-146.731 29.973 33.536 127.275 137.109 192.661 146.155v0.661l20.459-0.64c22.123-2.88 37.397-15.403 42.56-35.307 8.853-34.283-15.211-79.701-51.499-97.216-55.104-26.603-196.843-57.045-202.859-58.304l-2.347-0.533zM299.605 859.904c12.373-4.672 68.117-19.349 155.947-39.979-41.173 52.181-92.523 101.653-122.133 101.653-5.995 0-24.213 0-33.173-26.112-5.824-17.109-2.603-31.36-0.64-35.563zM713.365 921.664l-2.091-0.064c-29.44-1.216-87.936-48.661-137.643-99.029 42.517 10.709 95.552 25.472 122.219 38.357 22.571 10.88 34.048 40.32 30.464 54.101-0.811 3.243-1.664 6.635-12.949 6.635z" />
<glyph unicode="&#xe930;" glyph-name="globe" d="M512 960c-282.304 0-512-229.739-512-512 0-282.24 229.696-512 512-512 282.24 0 512 229.717 512 512s-229.717 512-512 512zM531.947 887.851c36.672-27.008 98.24-79.083 149.163-155.2-41.813-10.261-91.435-17.835-149.163-19.968v175.168zM531.947 178.112c52.544-1.941 98.517-8.299 137.856-17.195-48.32-70.933-103.552-121.984-137.856-150.037v167.232zM531.947 220.8v216.576h234.069c-4.032-92.075-33.707-172.16-72.064-238.208-45.355 11.243-99.2 19.435-162.005 21.632zM531.947 480.043v189.973c67.733 2.347 125.227 11.648 172.693 24.213 33.067-59.499 57.707-131.051 61.376-214.187h-234.069zM569.024 913.749c100.011-12.16 190.4-55.851 260.885-120.896-21.589-13.611-55.936-32-104.875-47.936-50.816 80.235-113.579 136.469-156.011 168.832zM489.28 437.355v-216.064c-62.805-0.875-116.587-8.576-161.941-19.712-37.675 65.579-66.731 144.789-70.741 235.776h232.683zM256.597 480.021c3.627 81.984 27.755 152.768 60.224 211.84 47.467-12.544 104.725-21.419 172.437-22.357v-189.461l-232.661-0.021zM489.28 178.581v-166.549c-34.752 28.608-90.005 80.021-138.027 151.189 39.339 8.768 85.376 14.592 138.027 15.36zM489.28 712.192c-57.792 0.811-107.435 7.829-149.248 18.005 50.539 76.331 112.043 128.917 149.248 156.565v-174.571zM296.085 742.592c-47.915 15.915-81.792 34.773-103.36 49.024 70.272 65.344 160.555 109.376 260.523 121.941-42.816-32.747-106.197-89.707-157.163-170.965zM274.283 704.661c-32.917-62.72-56.939-137.6-60.373-224.64h-170.027c7.275 107.371 50.731 204.928 118.357 280.533 22.677-15.936 59.243-37.547 112.043-55.893zM213.909 437.333c3.776-95.851 32.427-178.901 70.357-247.979-55.509-18.155-94.784-40.448-119.211-57.088-73.749 80.981-119.488 187.819-122.112 305.067h170.965zM306.837 151.424c51.093-79.573 111.723-136.896 151.424-169.579-100.352 11.499-191.189 54.677-262.165 119.403 23.403 14.955 59.776 34.389 110.741 50.176zM714.283 149.099c51.968-15.851 88.747-34.816 112.192-49.173-71.147-64.341-162.048-107.157-262.379-118.315 39.339 32.363 99.371 88.981 150.187 167.488zM737.109 187.115c38.571 69.525 67.797 153.365 71.573 250.283h172.373c-2.645-117.952-48.875-225.28-123.349-306.432-24.107 15.893-63.488 37.739-120.597 56.149zM808.683 480.064c-3.477 88.128-28.032 163.797-61.611 227.008 54.016 18.453 91.157 39.68 113.579 54.72 68.224-75.755 112.128-173.781 119.445-281.728h-171.413z" />
<glyph unicode="&#xe931;" glyph-name="globe_stand" d="M454.912 223.381c-203.797 0-369.579 165.205-369.579 368.299s165.781 368.32 369.579 368.32c203.755 0 369.557-165.227 369.557-368.32s-165.803-368.299-369.557-368.299zM454.912 916.672c-179.819 0-326.101-145.792-326.101-324.992 0-179.221 146.283-324.971 326.101-324.971 179.755 0 326.059 145.749 326.059 324.971-0.021 179.2-146.304 324.992-326.059 324.992zM460.651 109.547c-122.475 0-244.949 46.507-338.197 139.392l30.72 30.656c169.536-168.939 445.397-168.981 614.891 0 169.493 168.917 169.493 443.84 0 612.8l30.699 30.635c186.496-185.835 186.496-488.213 0-674.069-93.184-92.928-215.637-139.413-338.112-139.413zM417.173 131.499h85.333v-85.333h-85.333v85.333zM786.005-64h-650.731l52.245 38.997c79.744 59.541 174.208 91.008 273.109 91.008s193.365-31.467 273.088-91.008l52.288-38.997zM276.736-20.672h367.808c-56.875 28.48-119.339 43.328-183.893 43.328s-127.040-14.848-183.915-43.328zM107.093 211.968c-5.568 0-11.136 2.112-15.381 6.336-8.491 8.469-8.491 22.165 0 30.656l61.483 61.269c8.491 8.448 22.229 8.448 30.741 0 8.491-8.469 8.491-22.165 0-30.635l-61.483-61.312c-4.245-4.224-9.813-6.315-15.36-6.315zM752.704 855.403c-5.589 0-11.115 2.133-15.381 6.336-8.491 8.469-8.491 22.165 0 30.635l61.461 61.269c8.491 8.469 22.251 8.469 30.741 0s8.491-22.165 0-30.635l-61.461-61.269c-4.224-4.245-9.813-6.336-15.36-6.336z" />
<glyph unicode="&#xe932;" glyph-name="golf_club_shield" d="M512-64c-1.941 0-3.883 0.32-5.76 0.789-373.376 104.64-418.816 334.293-420.565 344.043-0.235 1.259-0.341 2.496-0.341 3.797v632.171c0 8.619 5.184 16.427 13.163 19.712s17.152 1.472 23.253-4.629c47.552-47.552 110.571-73.749 177.429-73.749 76.245 0 147.627 34.368 195.84 94.293 8.128 10.091 25.835 10.091 33.963 0 48.235-59.925 119.552-94.293 195.819-94.293 66.88 0 129.92 26.219 177.451 73.749 6.101 6.101 15.275 7.936 23.253 4.629 7.979-3.285 13.163-11.093 13.163-19.712v-632.171c0-1.323-0.107-2.539-0.341-3.797-1.749-9.749-47.211-239.424-420.587-344.043-1.856-0.469-3.797-0.789-5.739-0.789zM128 286.869c2.155-9.152 15.36-58.24 63.019-116.459 48.469-59.115 143.381-139.989 320.981-190.869 177.579 50.965 272.491 131.776 320.96 190.869 47.616 58.091 60.885 107.115 63.040 116.459v583.808c-49.643-35.883-108.992-55.211-171.2-55.211-81.003 0-157.248 33.088-212.8 91.584-55.531-58.496-131.819-91.584-212.821-91.584-62.187 0-121.536 19.328-171.179 55.211v-583.808zM268.779 782.869c13.227-1.536 25.067-8.107 33.323-18.517l100.629-126.741c4.267-5.376 73.792-173.056 73.792-173.056s-147.499 105.771-151.744 111.147l-100.629 126.763c-8.277 10.411-11.989 23.403-10.453 36.608s8.085 25.088 18.496 33.344c10.411 8.277 23.381 11.989 36.587 10.453zM381.781 625.493l-99.2 123.392c-8.277 10.432-24.533 12.309-34.965 4.011-5.205-4.117-8.469-10.048-9.237-16.64-0.768-6.613 1.067-13.141 5.205-18.325l99.221-123.392 83.989-67.691-45.013 98.645zM639.125 229.504l-7.253 10.283 10.453 7.125c25.088 17.045 109.12 72.683 136.747 72.683 1.963 0 3.797-0.277 5.504-0.64 22.613-5.76 25.707-42.453 26.048-58.048 0.533-28.459-5.099-44.715-16.853-48.171-2.453-0.683-7.36-2.389-13.696-4.629-32.661-11.264-65.963-22.379-82.709-22.507h-0.277c-25.877 0.107-52.843 36.608-57.963 43.904zM779.093 294.699c-12.693 0-65.579-30.4-111.787-60.949 10.496-12.245 23.253-23.125 29.867-23.125v0c14.059 0.085 55.083 14.293 74.795 21.099 4.629 1.579 8.512 2.987 11.413 3.947 4.651 12.373 2.411 53.824-4.288 59.029zM243.563 717.312c2.773-0.853 5.632-1.429 8.64-1.429 17.173 0 31.125 13.995 31.125 31.104 0 0.512-0.128 0.981-0.149 1.493l12.096 3.179c0.213-1.557 0.469-3.072 0.469-4.672 0-24.021-19.541-43.563-43.563-43.563-5.696 0-11.093 1.173-16.064 3.157l7.445 10.731zM273.344 679.979c2.795-0.853 5.653-1.408 8.661-1.408 17.173 0 31.104 13.952 31.104 31.104 0 0.512-0.107 1.003-0.149 1.493l12.117 3.179c0.171-1.557 0.469-3.072 0.469-4.672 0-24.021-19.541-43.584-43.563-43.584-5.696 0-11.093 1.152-16.085 3.157l7.445 10.731zM303.189 642.624c2.773-0.832 5.632-1.408 8.64-1.408 17.173 0 31.125 13.973 31.125 31.125 0 0.512-0.128 1.003-0.149 1.493l12.096 3.179c0.192-1.557 0.469-3.072 0.469-4.672 0-24-19.541-43.584-43.563-43.584-5.675 0-11.093 1.173-16.064 3.157l7.445 10.709zM332.971 605.291c2.773-0.853 5.653-1.429 8.661-1.429 17.152 0 31.104 13.973 31.104 31.104 0 0.512-0.128 1.003-0.149 1.493l12.117 3.157c0.171-1.557 0.469-3.072 0.469-4.672 0-24-19.541-43.563-43.563-43.563-5.696 0-11.093 1.173-16.064 3.157l7.424 10.752zM362.816 567.936c2.773-0.853 5.632-1.429 8.661-1.429 17.152 0 31.083 13.973 31.083 31.104 0 0.512-0.128 1.003-0.149 1.493l12.117 3.157c0.192-1.557 0.448-3.072 0.448-4.672 0-24-19.52-43.584-43.52-43.584-5.717 0-11.115 1.173-16.085 3.179l7.445 10.752zM542.336 396.16l-15.659-20.48 106.347-138.048 19.477 15.467zM494.229 458.24l-41.344 55.531-19.456-15.467 45.141-60.501zM371.499 253.099l199.616 260.672 19.477-15.467-199.616-260.672zM791.829 772.395c10.411-8.235 16.981-20.096 18.496-33.344 1.493-13.248-2.219-26.219-10.453-36.608l-100.629-126.763c-4.245-5.376-151.744-111.147-151.744-111.147s69.525 167.68 73.792 173.056l100.629 126.763c8.256 10.411 20.075 16.981 33.344 18.517 13.163 1.536 26.133-2.176 36.565-10.475zM597.184 526.848l83.989 67.691 99.221 123.392c4.139 5.205 5.973 11.712 5.205 18.325-0.747 6.592-4.011 12.501-9.237 16.64-10.411 8.299-26.709 6.421-35.008-4.011l-99.157-123.392-45.013-98.645zM326.848 185.707h-0.235c-16.747 0.128-50.048 11.157-82.709 22.507-6.336 2.219-11.221 3.904-13.696 4.608-11.733 3.456-17.387 19.691-16.853 48.192 0.32 15.552 3.456 52.267 26.048 58.048 1.707 0.405 3.563 0.597 5.483 0.597 27.648 0 111.701-55.595 136.789-72.683l10.475-7.083-7.275-10.304c-5.12-7.381-32.085-43.883-58.027-43.883zM240.64 235.627c2.88-0.96 6.784-2.304 11.413-3.925 19.712-6.827 60.715-21.035 74.773-21.12h0.021c6.635 0 19.349 10.88 29.845 23.125-46.208 30.613-99.115 60.971-111.787 60.971-6.699-5.184-8.981-46.635-4.267-59.051zM780.437 717.312c-2.773-0.853-5.653-1.429-8.64-1.429-17.173 0-31.125 13.995-31.125 31.104 0 0.512 0.128 0.981 0.171 1.493l-12.096 3.179c-0.256-1.557-0.448-3.072-0.448-4.672 0-24.021 19.541-43.563 43.584-43.563 5.675 0 11.093 1.173 16.043 3.157l-7.488 10.731zM750.677 679.979c-2.795-0.853-5.675-1.408-8.64-1.408-17.195 0-31.104 13.952-31.104 31.104 0 0.512 0.107 1.003 0.149 1.493l-12.096 3.179c-0.192-1.557-0.448-3.072-0.448-4.672 0-24.021 19.541-43.584 43.563-43.584 5.696 0 11.115 1.152 16.085 3.157l-7.509 10.731zM720.811 642.624c-2.773-0.832-5.653-1.408-8.64-1.408-17.173 0-31.125 13.973-31.125 31.125 0 0.512 0.128 1.003 0.171 1.493l-12.117 3.179c-0.171-1.557-0.448-3.072-0.448-4.672 0-24 19.541-43.584 43.563-43.584 5.717 0 11.115 1.173 16.085 3.157l-7.488 10.709zM691.051 605.291c-2.795-0.853-5.675-1.429-8.661-1.429-17.173 0-31.125 13.973-31.125 31.104 0 0.512 0.171 1.003 0.192 1.493l-12.117 3.157c-0.171-1.557-0.448-3.072-0.448-4.672 0-24 19.541-43.563 43.541-43.563 5.717 0 11.115 1.173 16.085 3.157l-7.467 10.752zM661.184 567.936c-2.773-0.853-5.653-1.429-8.661-1.429-17.152 0-31.083 13.973-31.083 31.104 0 0.512 0.149 1.003 0.149 1.493l-12.117 3.157c-0.171-1.557-0.448-3.072-0.448-4.672 0-24 19.52-43.584 43.52-43.584 5.717 0 11.115 1.173 16.085 3.179l-7.445 10.752z" />
<glyph unicode="&#xe933;" glyph-name="golf_course_green" d="M181.356 238.523c0-16.877 22.552-30.959 53.34-35.588v71.177c-30.745-4.651-53.34-18.754-53.34-35.588zM309.372 274.112v-71.177c30.767 4.63 53.34 18.712 53.34 35.588 0 16.834-22.595 30.937-53.34 35.588zM256.032 203.489c0 0 0-1.963 14.743-2.304 14.765-0.384 17.261 2.283 17.261 2.283v756.532h-32.004v-756.511zM806.565 316.378c-57.308 9.623-145.768 23.832-145.149 38.81 0.043 14.316 38.085 22.445 61.341 31.364 38.832 13.975 56.306 16.045 55.431 40.922-0.832 23.896-29.998 32.175-44.016 36.122-62.92 17.901-137.66 26.947-222.108 26.947-76.596 0-138.044-11.201-202.692-26.883v-44.912c64.456 16.962 126.437 29.124 202.692 29.124 76.895 0 144.914-7.788 202.351-23.107-5.782-2.219-11.756-4.374-16.834-6.166-39.706-14.338-77.215-27.865-84.64-54.492-3.115-11.223 1.92-25.39 10.071-35.396 31.727-27.545 94.156-40.624 176.47-54.535 68.041-11.457 180.652-23.683 181.975-60.978 4.545-127.141-214.96-234.696-469.392-234.696s-469.392 107.469-469.392 234.696c0 80.415 64.584 152.851 192.024 195.288v45.936c-154.11-47.238-234.696-136.572-234.696-241.225 0-155.518 224.924-277.325 512.064-277.325s512.064 121.807 512.064 277.325c0 66.44-105.677 84.235-217.563 103.181zM314.706 703.904c0 0 22.851 74.463 22.851 139.132s-22.851 116.9-22.851 116.9 141.714-90.017 182.871-36.015c38.085 49.99 137.169-27.993 137.169-27.993s-78.196-13.612-92.406-64.008c-23.832-84.448-227.634-128.016-227.634-128.016z" />
<glyph unicode="&#xe934;" glyph-name="golf_cup" d="M509.888 277.333c-23.531 0-42.667 19.115-42.667 42.667s19.136 42.667 42.667 42.667 42.667-19.115 42.667-42.667-19.136-42.667-42.667-42.667zM628.885 216.533c-0.213-0.085-0.341-0.171-0.341-0.171l0.341 0.171zM508.565 469.675c31.979 0 43.989-21.333 43.989-21.333l42.667 106.667c0 0-14.677 43.328-85.952 42.667-71.317-0.661-84.672-42.667-84.672-42.667l42.581-106.325c-0.704 2.624 9.045 20.992 41.387 20.992zM609.451 426.432l58.965 84.544c0 0 6.699 8.683 19.371-3.541 12.715-12.245 5.547-20.779 5.547-20.779l-83.883-60.224zM512 960c-282.304 0-512-229.76-512-512 0-280.832 227.413-509.589 507.755-511.893 0.725 0 1.408-0.107 2.133-0.107 0.235 0 0.469 0.043 0.704 0.043 0.469 0 0.939-0.043 1.408-0.043 282.24 0 512 229.717 512 512s-229.717 512-512 512zM168.555 320c0 188.203 153.131 341.333 341.333 341.333s341.333-153.131 341.333-341.333c0-187.989-152.747-340.907-340.608-341.291-0.939 0-1.877 0.064-2.837 0.064-187.221 1.173-339.221 153.728-339.221 341.227zM820.203 94.507c46.123 63.36 73.664 141.141 73.664 225.493 0 212.032-171.968 384-384 384-212.053 0-384-171.968-384-384 0-79.211 24.021-152.811 65.152-213.952-91.2 85.653-148.352 207.232-148.352 341.952 0 258.795 210.539 469.333 469.333 469.333 258.752 0 469.291-210.539 469.333-469.333 0-140.885-62.507-267.392-161.131-353.493zM467.136 191.979l-42.581-106.304c0 0 13.355-42.005 84.672-42.667s85.973 42.667 85.973 42.667l-42.667 106.667c0 0-12.011-21.333-44.011-21.333-32.299 0-42.048 18.347-41.387 20.971zM659.2 321.323c0-32-21.333-44.011-21.333-44.011l106.667-42.667c0 0 43.328 14.677 42.667 85.973-0.661 71.339-42.667 84.693-42.667 84.693l-106.283-42.581c2.624 0.683 20.949-9.067 20.949-41.408zM381.525 362.752l-106.304 42.581c0 0-42.005-13.355-42.667-84.672-0.661-71.339 42.667-85.995 42.667-85.995l106.667 42.667c0 0-21.333 12.011-21.333 44.011 0 32.32 18.347 42.069 20.971 41.408zM313.344 486.656c0 0-7.147 8.512 5.547 20.779 12.672 12.224 19.392 3.541 19.392 3.541l58.944-84.544-83.883 60.224zM693.333 152.875c0 0 7.168-8.491-5.547-20.8-12.672-12.203-19.371-3.541-19.371-3.541l-58.965 84.565 83.883-60.224zM397.227 213.099l-58.944-84.565c0 0-6.72-8.661-19.392 3.541-12.693 12.245-5.547 20.8-5.547 20.8l83.883 60.224z" />
<glyph unicode="&#xe935;" glyph-name="golf_iron" d="M1023.424 884.395c-2.581 22.656-13.824 42.965-31.701 57.109-17.877 14.165-40.128 20.544-62.72 17.899-22.677-2.581-42.944-13.845-57.088-31.701l-172.48-217.216c-4.992-6.272-61.995-141.845-97.771-227.499l-329.963-430.677c-55.552 36.971-175.189 113.216-217.6 113.216-3.307 0-6.485-0.384-9.387-1.109-38.741-9.771-44.139-72.789-44.651-99.435-0.939-48.811 8.768-76.587 28.885-82.475 4.224-1.259 12.608-4.16 23.467-7.915 56-19.413 113.067-38.357 141.781-38.592h0.427c44.437 0 90.688 62.549 99.435 75.093l10.069 14.293 0.427-0.363 334.080 436.181c75.456 54.379 189.547 137.024 194.389 143.168l172.459 217.237c14.187 17.835 20.565 40.128 17.941 62.784zM194.624-21.333v-21.333l-0.064 21.333c-24.107 0.192-94.379 24.491-128.171 36.224-7.915 2.731-14.635 5.056-19.541 6.677-8.085 21.291-4.224 92.352 7.317 101.269 21.696 0 112.427-52.075 191.595-104.491-17.984-21.056-39.765-39.68-51.136-39.68zM972.075 848.149l-170.091-211.477-144-116.011 77.205 169.067 170.091 211.477c14.165 17.835 42.048 21.056 59.947 6.869 8.917-7.083 14.528-17.216 15.808-28.523 1.323-11.328-1.835-22.507-8.96-31.403zM972.203 847.104c-4.757-1.429-9.643-2.432-14.827-2.432-29.419 0-53.333 23.936-53.333 53.333 0 0.875 0.213 1.707 0.256 2.56l-20.779 5.44c-0.32-2.667-0.811-5.269-0.811-8 0-41.173 33.493-74.667 74.667-74.667 9.749 0 19.008 2.005 27.541 5.419l-12.715 18.347zM921.131 783.104c-4.757-1.429-9.664-2.432-14.827-2.432-29.419 0-53.333 23.936-53.333 53.333 0 0.875 0.235 1.707 0.277 2.56l-20.821 5.44c-0.299-2.667-0.789-5.269-0.789-8 0-41.173 33.472-74.667 74.667-74.667 9.749 0 19.029 2.005 27.541 5.419l-12.715 18.347zM869.995 719.104c-4.757-1.429-9.643-2.432-14.827-2.432-29.419 0-53.333 23.936-53.333 53.333 0 0.875 0.213 1.707 0.256 2.56l-20.779 5.44c-0.32-2.667-0.811-5.269-0.811-8 0-41.173 33.493-74.667 74.667-74.667 9.749 0 19.008 2.005 27.541 5.419l-12.715 18.347zM818.923 655.104c-4.757-1.429-9.664-2.432-14.827-2.432-29.419 0-53.333 23.936-53.333 53.333 0 0.875 0.235 1.707 0.277 2.56l-20.821 5.44c-0.299-2.667-0.789-5.269-0.789-8 0-41.173 33.472-74.667 74.667-74.667 9.749 0 19.029 2.005 27.541 5.419l-12.715 18.347zM767.787 591.104c-4.757-1.429-9.643-2.432-14.827-2.432-29.419 0-53.333 23.936-53.333 53.333 0 0.875 0.213 1.707 0.256 2.56l-20.779 5.44c-0.32-2.667-0.811-5.269-0.811-8 0-41.173 33.493-74.667 74.667-74.667 9.749 0 19.008 2.005 27.541 5.419l-12.715 18.347z" />
<glyph unicode="&#xe936;" glyph-name="golf_tee_golfball" d="M832 640c0 176.448-143.573 320-320 320-176.448 0-320-143.552-320-320 0-136.299 85.803-252.651 206.123-298.688l-57.856 0.021v-33.899h0.043v-33.899c0 0 125.461-126.869 125.824-293.995v-43.541h85.333v43.541h0.043c0.363 166.827 125.781 293.547 125.781 293.547v68.16l-51.563 0.021c120.384 45.995 206.272 162.368 206.272 298.731zM634.624 285.397c0 0-125.803-140.309-125.824-306.731v0.875c-0.021 166.677-125.824 305.835-125.824 305.835v22.059h251.648v-22.037zM512 378.176c-144.384 0-261.824 117.419-261.824 261.803s117.44 261.824 261.824 261.824c144.341 0 261.781-117.44 261.781-261.824s-117.44-261.803-261.781-261.803zM298.048 640.448c0 20.267 13.909 37.141 32.597 42.069-3.072 0.683-6.251 1.131-9.557 1.131-24.085 0-43.669-19.541-43.669-43.669 0-24.107 19.563-43.669 43.669-43.669 3.84 0 7.531 0.661 11.051 1.6-19.499 4.416-34.091 21.739-34.091 42.539zM330.112 756.821c0 20.267 13.888 37.141 32.576 42.048-3.093 0.704-6.251 1.131-9.515 1.131-24.085 0-43.627-19.563-43.627-43.669 0-24.085 19.563-43.584 43.627-43.584 3.84 0 7.509 0.661 11.051 1.579-19.499 4.352-34.112 21.696-34.112 42.496zM330.112 524.096c0 20.267 13.888 37.163 32.576 42.048-3.093 0.725-6.229 1.131-9.515 1.131-24.085 0-43.627-19.541-43.627-43.584 0-24.085 19.563-43.669 43.627-43.669 3.84 0 7.509 0.64 11.051 1.579-19.499 4.352-34.112 21.696-34.112 42.496zM417.387 815.019c0 20.245 13.867 37.141 32.597 42.069-3.093 0.683-6.229 1.109-9.557 1.109-24.064 0-43.627-19.52-43.627-43.605 0-24.128 19.563-43.669 43.627-43.669 3.861 0 7.488 0.661 11.029 1.6-19.456 4.352-34.069 21.675-34.069 42.496zM417.387 465.899c0 20.309 13.867 37.163 32.597 42.027-3.093 0.747-6.229 1.152-9.557 1.152-24.064 0-43.627-19.563-43.627-43.669 0-24.085 19.563-43.605 43.627-43.605 3.861 0 7.488 0.64 11.029 1.579-19.456 4.416-34.069 21.739-34.069 42.517zM415.744 640.427c0 20.288 13.867 37.141 32.576 42.091-3.093 0.683-6.229 1.131-9.515 1.131-24.085 0-43.648-19.541-43.648-43.669 0-24.107 19.563-43.669 43.648-43.669 3.819 0 7.509 0.661 11.029 1.6-19.477 4.416-34.091 21.739-34.091 42.517zM519.744 829.568c0 20.245 13.973 37.12 32.683 42.048-3.093 0.683-6.208 1.131-9.6 1.131-24.064 0-43.605-19.563-43.605-43.648s19.563-43.669 43.605-43.669c3.883 0 7.509 0.64 11.029 1.621-19.435 4.352-34.112 21.675-34.112 42.517zM519.744 451.349c0 20.267 13.973 37.163 32.683 42.048-3.115 0.725-6.251 1.173-9.579 1.173-24.064 0-43.605-19.563-43.605-43.669s19.563-43.627 43.605-43.627c3.883 0 7.509 0.661 11.029 1.6-19.456 4.352-34.133 21.717-34.133 42.475z" />
<glyph unicode="&#xe937;" glyph-name="golfbox" d="M627.257 447.957c0-63.603-51.612-115.214-115.172-115.214s-115.172 51.612-115.172 115.214c0 63.56 51.612 115.129 115.172 115.129s115.172-51.569 115.172-115.129zM880.387 447.957c0-53.404-35.29-99.618-81.93-103.693-50.609-4.331-94.796 41.989-94.796 103.693v0c0 61.682 44.187 107.896 94.796 103.608 46.619-3.99 81.93-50.268 81.93-103.608zM1024.128 447.957c0-44.038-16.557-85.003-40.346-92.684v0c-28.569-9.26-56.22 31.513-56.22 92.684v0 0 0c0 61.17 27.651 101.858 56.22 92.641v0c23.79-7.724 40.346-48.753 40.346-92.641zM997.266 687.753c-20.867 36.186-54.001 62.024-77.215 57.031v0c-27.886-5.931-31.279-52.529-2.219-102.904v0 0 0c29.038-50.374 71.177-70.686 90.23-49.521v0c15.959 17.624 10.092 59.207-10.796 95.393zM512.085 816.238c-53.425 0-99.703-35.311-103.65-81.994-4.267-50.588 41.968-94.732 103.65-94.732v0c61.682 0 107.981 44.144 103.65 94.732-4.011 46.662-50.225 81.994-103.65 81.994zM814.182 751.462c-35.546 35.503-86.923 48.923-118.564 27.481v0c-36.655-24.963-33.305-86.133 13.271-132.689v0 0 0c46.619-46.576 107.768-49.948 132.689-13.228v0c21.507 31.599 8.086 82.933-27.395 118.436zM512.085 960c-43.995 0-84.917-16.578-92.641-40.368v0c-9.281-28.526 31.407-56.242 92.641-56.242v0 0 0c61.192 0 101.858 27.694 92.705 56.242v0c-7.788 23.79-48.731 40.368-92.705 40.368zM747.080 940.094c-36.122 20.867-77.748 26.734-95.372 10.775v0c-21.187-19.074-0.853-61.149 49.521-90.23v0 0 0c50.374-29.081 96.951-25.582 102.925 2.219v0c4.993 23.278-20.824 56.37-57.074 77.236zM143.762 447.957c0-53.404 35.29-99.618 81.952-103.693 50.588-4.331 94.775 41.989 94.775 103.693v0c0 61.682-44.187 107.896-94.775 103.608-46.662-3.99-81.952-50.268-81.952-103.608zM0 447.957c0-44.038 16.557-85.003 40.368-92.684v0c28.484-9.26 56.178 31.513 56.178 92.684v0 0 0c0 61.17-27.694 101.858-56.178 92.641v0c-23.811-7.724-40.368-48.753-40.368-92.641zM26.883 687.753c20.824 36.186 53.98 62.024 77.258 57.031v0c27.843-5.931 31.257-52.529 2.198-102.904v0 0 0c-29.038-50.374-71.156-70.686-90.251-49.521v0c-15.959 17.624-10.092 59.207 10.796 95.393zM210.010 751.462c35.503 35.503 86.902 48.923 118.5 27.481v0c36.698-24.963 33.348-86.133-13.25-132.689v0 0 0c-46.64-46.576-107.725-49.948-132.667-13.228v0c-21.571 31.599-8.108 82.933 27.417 118.436zM277.048 940.094c36.165 20.867 77.791 26.734 95.393 10.775v0c21.208-19.074 0.853-61.149-49.542-90.23v0 0 0c-50.332-29.081-96.908-25.582-102.925 2.219v0c-4.929 23.278 20.867 56.37 57.074 77.236zM997.266 208.119c-20.867-36.165-54.001-62.002-77.215-57.074v0c-27.886 5.953-31.279 52.593-2.219 102.925v0 0 0c29.038 50.396 71.177 70.686 90.23 49.542v0c15.959-17.624 10.092-59.207-10.796-95.393zM512.085 79.677c-53.425 0-99.703 35.268-103.65 81.952-4.267 50.588 41.968 94.753 103.65 94.753v0c61.682 0 107.981-44.166 103.65-94.753-4.011-46.662-50.225-81.952-103.65-81.952zM814.182 144.431c-35.546-35.546-86.923-48.987-118.564-27.523v0c-36.655 24.963-33.305 86.155 13.271 132.731v0 0 0c46.619 46.555 107.768 49.969 132.689 13.228v0c21.507-31.599 8.086-82.976-27.395-118.436zM512.085-64.128c-43.995 0-84.917 16.557-92.641 40.432v0c-9.281 28.548 31.407 56.242 92.641 56.242v0 0 0c61.192 0 101.858-27.694 92.705-56.242v0c-7.788-23.875-48.731-40.432-92.705-40.432zM747.080-44.2c-36.122-20.888-77.748-26.755-95.372-10.817v0c-21.187 19.074-0.853 61.149 49.521 90.273v0 0 0c50.374 29.060 96.951 25.561 102.925-2.24v0c4.993-23.235-20.824-56.391-57.074-77.215zM26.883 208.119c20.824-36.165 53.98-62.002 77.258-57.074v0c27.843 5.953 31.257 52.593 2.198 102.925v0 0 0c-29.038 50.396-71.156 70.686-90.251 49.542v0c-15.959-17.624-10.092-59.207 10.796-95.393zM210.010 144.431c35.503-35.546 86.902-48.987 118.5-27.523v0c36.698 24.963 33.348 86.155-13.25 132.731v0 0 0c-46.64 46.555-107.725 49.969-132.667 13.228v0c-21.571-31.599-8.108-82.976 27.417-118.436zM277.048-44.2c36.165-20.888 77.791-26.755 95.393-10.817v0c21.208 19.074 0.853 61.149-49.542 90.273v0 0 0c-50.332 29.060-96.908 25.561-102.925-2.24v0c-4.929-23.235 20.867-56.391 57.074-77.215z" />
<glyph unicode="&#xe938;" glyph-name="grid" d="M277.333-64c-11.797 0-21.333 9.557-21.333 21.333v981.333c0 11.776 9.536 21.333 21.333 21.333s21.333-9.557 21.333-21.333v-981.333c0-11.776-9.536-21.333-21.333-21.333zM512-64c-11.797 0-21.333 9.557-21.333 21.333v981.333c0 11.776 9.536 21.333 21.333 21.333s21.333-9.557 21.333-21.333v-981.333c0-11.776-9.536-21.333-21.333-21.333zM746.667-64c-11.797 0-21.333 9.557-21.333 21.333v981.333c0 11.776 9.536 21.333 21.333 21.333s21.333-9.557 21.333-21.333v-981.333c0-11.776-9.536-21.333-21.333-21.333zM1002.667 661.333h-981.333c-11.797 0-21.333 9.557-21.333 21.333s9.536 21.333 21.333 21.333h981.333c11.797 0 21.333-9.557 21.333-21.333s-9.536-21.333-21.333-21.333zM1002.667 426.667h-981.333c-11.797 0-21.333 9.557-21.333 21.333s9.536 21.333 21.333 21.333h981.333c11.797 0 21.333-9.557 21.333-21.333s-9.536-21.333-21.333-21.333zM1002.667 192h-981.333c-11.797 0-21.333 9.557-21.333 21.333s9.536 21.333 21.333 21.333h981.333c11.797 0 21.333-9.557 21.333-21.333s-9.536-21.333-21.333-21.333z" />
<glyph unicode="&#xe939;" glyph-name="handle" d="M896 768h42.667v-640h-42.667v640zM192 874.667h640v-42.667h-640v42.667zM106.667 768h42.667v-640h-42.667v640zM192 64h640v-42.667h-640v42.667zM213.333 746.667h-213.333v213.333h213.333v-213.333zM42.667 789.333h128v128h-128v-128zM1024 746.667h-213.333v213.333h213.333v-213.333zM853.333 789.333h128v128h-128v-128zM213.333-64h-213.333v213.333h213.333v-213.333zM42.667-21.333h128v128h-128v-128zM1024-64h-213.333v213.333h213.333v-213.333zM853.333-21.333h128v128h-128v-128z" />
<glyph unicode="&#xe93a;" glyph-name="headset" d="M874.667 426.667h-42.667v85.333c0 176.448-143.552 320-320 320s-320-143.552-320-320v-85.333h-42.667v85.333c0 199.979 162.688 362.667 362.667 362.667s362.667-162.688 362.667-362.667v-85.333zM106.667 128c-58.816 0-106.667 47.851-106.667 106.667s47.851 106.667 106.667 106.667v-42.667c-35.285 0-64-28.715-64-64s28.715-64 64-64v-42.667zM213.333 21.333h-42.667c-47.061 0-85.333 38.272-85.333 85.333v256c0 47.061 38.272 85.333 85.333 85.333h42.667c47.061 0 85.333-38.272 85.333-85.333v-256c0-47.061-38.272-85.333-85.333-85.333zM170.667 405.333c-23.531 0-42.667-19.115-42.667-42.667v-256c0-23.552 19.136-42.667 42.667-42.667h42.667c23.531 0 42.667 19.115 42.667 42.667v256c0 23.552-19.136 42.667-42.667 42.667h-42.667zM917.333 128v42.667c35.285 0 64 28.715 64 64s-28.715 64-64 64v42.667c58.816 0 106.667-47.851 106.667-106.667s-47.851-106.667-106.667-106.667zM832 21.333c-58.816 0-106.667 47.851-106.667 106.667v213.333c0 58.816 47.851 106.667 106.667 106.667s106.667-47.851 106.667-106.667v-213.333c0-58.816-47.851-106.667-106.667-106.667zM832 405.333c-35.285 0-64-28.715-64-64v-213.333c0-35.285 28.715-64 64-64s64 28.715 64 64v213.333c0 35.285-28.715 64-64 64z" />
<glyph unicode="&#xe93b;" glyph-name="heart" d="M512 0c-3.691 0-7.381 0.917-10.688 2.773-5.099 2.816-126.144 70.656-249.131 179.925-167.339 148.651-252.181 295.552-252.181 436.587 0 190.101 133.952 276.715 258.411 276.715 95.979 0 203.307-52.715 253.589-168.661 50.283 115.947 157.632 168.661 253.589 168.661 124.459 0 258.411-86.613 258.411-276.715 0-141.035-84.843-287.936-252.16-436.608-123.008-109.269-244.032-177.109-249.152-179.925-3.307-1.835-6.997-2.752-10.688-2.752zM258.411 855.019c-103.915 0-215.744-73.771-215.744-235.733 0-284.139 398.379-532.821 469.333-574.848 70.891 42.048 469.333 290.901 469.333 574.848 0 161.963-111.829 235.712-215.744 235.712-95.424 0-204.373-62.763-232.619-202.987-1.963-9.643-10.731-16.597-20.949-16.597s-19.008 6.955-20.949 16.597c-28.288 140.224-137.237 203.008-232.661 203.008z" />
<glyph unicode="&#xe93c;" glyph-name="home" d="M896.171-64h-298.837v320.021h-170.667v-320.021h-298.667v533.333c0 11.776 9.536 21.333 21.333 21.333s21.333-9.557 21.333-21.333v-490.667h213.333v320.021h256v-320.021h213.504v490.667c0 11.776 9.408 21.333 21.333 21.333 11.947 0 21.333-9.557 21.333-21.333v-533.333zM1002.944 448c-5.291 0-10.539 1.92-14.677 5.824l-476.267 448.064-475.925-448.064c-8.512-8-22.016-7.744-30.165 0.64s-7.829 21.675 0.661 29.696l505.429 475.84 505.429-475.84c8.469-8 8.789-21.312 0.661-29.696-4.203-4.288-9.621-6.464-15.147-6.464z" />
<glyph unicode="&#xe93d;" glyph-name="keyboard" d="M917.333 704h-810.667c-58.816 0-106.667-47.851-106.667-106.667v-554.667c0-58.816 47.851-106.667 106.667-106.667h810.667c58.816 0 106.667 47.851 106.667 106.667v554.667c0 58.816-47.851 106.667-106.667 106.667zM917.333-21.333h-810.667c-35.285 0-64 28.715-64 64v0.533c17.877-13.525 39.893-21.867 64-21.867h810.667c24.107 0 46.123 8.341 64 21.867v-0.533c0-35.285-28.715-64-64-64zM981.333 128c0-35.285-28.715-64-64-64h-810.667c-35.285 0-64 28.715-64 64v469.333c0 35.285 28.715 64 64 64h810.667c35.285 0 64-28.715 64-64v-469.333zM810.667 234.667h85.333v-85.333h-85.333v85.333zM128 234.667h85.333v-85.333h-85.333v85.333zM298.667 234.667h426.667v-85.333h-426.667v85.333zM128 405.333h85.333v-85.333h-85.333v85.333zM298.667 405.333h85.333v-85.333h-85.333v85.333zM469.333 405.333h85.333v-85.333h-85.333v85.333zM640 405.333h85.333v-85.333h-85.333v85.333zM810.667 405.333h85.333v-85.333h-85.333v85.333zM128 576h85.333v-85.333h-85.333v85.333zM298.667 576h85.333v-85.333h-85.333v85.333zM469.333 576h85.333v-85.333h-85.333v85.333zM640 576h85.333v-85.333h-85.333v85.333zM810.667 576h85.333v-85.333h-85.333v85.333zM1002.667 917.333h-64c-35.285 0-64-28.715-64-64s-28.715-64-64-64-64 28.715-64 64c0 70.592-57.408 106.667-128 106.667s-128-57.408-128-128v-128h42.667v128c0 47.061 38.272 85.333 85.333 85.333s85.333-16.939 85.333-64c0-58.816 47.851-106.667 106.667-106.667s106.667 47.851 106.667 106.667c0 11.755 9.579 21.333 21.333 21.333h64c11.797 0 21.333 9.557 21.333 21.333s-9.536 21.333-21.333 21.333z" />
<glyph unicode="&#xe93e;" glyph-name="laptop_ibook" d="M853.333 405.333h-682.667v469.333h682.667v-469.333zM213.333 448h597.333v384h-597.333v-384zM709.995 106.667h-395.989l32 170.667h331.989l32-170.667zM368.661 149.333h286.677l-10.667 85.333h-265.344l-10.667-85.333zM938.667-64h-853.333c-47.061 0-85.333 38.272-85.333 85.333l0.811 27.2 84.523 295.808v530.325c0 47.061 38.272 85.333 85.333 85.333h682.667c47.061 0 85.333-38.272 85.333-85.333v-509.205l85.333-322.795v-21.333c0-47.061-38.272-85.333-85.333-85.333zM42.667 39.659v-18.325c0-23.552 19.136-42.667 42.667-42.667h853.333c23.552 0 42.667 19.115 42.667 42.667v18.539l-85.333 322.795v512c0 23.531-19.115 42.667-42.667 42.667h-682.667c-23.531 0-42.667-19.136-42.667-42.667l-0.811-539.2-84.523-295.808zM106.667 362.667h810.667v-42.667h-810.667v42.667zM21.333 64h981.333v-42.667h-981.333v42.667z" />
</font>
</defs>
</svg>
